<svg xmlns="http://www.w3.org/2000/svg" viewBox="0 0 650.67 302.67"><defs><style>.cls-1,.cls-17,.cls-9{fill:#fff;}.cls-2,.cls-8{fill:#0072bc;}.cls-3,.cls-6{fill:#4cb3d6;}.cls-4{fill:#23596a;}.cls-13,.cls-5{fill:#3c8dbc;}.cls-13,.cls-6,.cls-8{stroke:#fff;stroke-width:4px;}.cls-13,.cls-15,.cls-16,.cls-17,.cls-18,.cls-6,.cls-8{stroke-miterlimit:10;}.cls-7{fill:#263238;}.cls-10,.cls-11,.cls-9{stroke:#384850;stroke-linecap:round;stroke-linejoin:round;}.cls-10,.cls-11,.cls-16{fill:none;}.cls-11,.cls-16,.cls-17{stroke-width:0.7px;}.cls-12{fill:#ffcb2a;}.cls-14,.cls-15,.cls-18{fill:#273238;}.cls-15{stroke:#37474f;}.cls-15,.cls-18{stroke-width:0.5px;}.cls-16,.cls-17,.cls-18{stroke:#263238;}</style></defs><title>arc_bdclean</title><g id="Layer_2" data-name="Layer 2"><g id="Layer_1-2" data-name="Layer 1"><rect class="cls-1" width="650.67" height="302.67"/><rect class="cls-2" x="147.07" y="17.59" width="462.34" height="42.65"/><rect class="cls-3" x="147.07" y="122.36" width="143.42" height="137.99"/><rect class="cls-3" x="465.99" y="122.36" width="143.42" height="137.99"/><rect class="cls-3" x="306.53" y="122.36" width="143.99" height="137.99"/><path class="cls-1" d="M170.9,42h-4.11l-.88,3.27h-2.81l4.17-13.09h3.27l4.15,13.09h-2.91Zm-.56-2.12L170,38.48q-.24-.88-.72-2.77l-.38-1.48h-.08q-.6,2.59-1.06,4.25l-.36,1.34Z"/><path class="cls-1" d="M185.93,45.88l.1-1.56a4.07,4.07,0,0,1-1.2.83,3.26,3.26,0,0,1-1.36.31,3.57,3.57,0,0,1-3-1.38,6,6,0,0,1-1.09-3.81,6.16,6.16,0,0,1,.58-2.75,4.57,4.57,0,0,1,1.53-1.82,3.55,3.55,0,0,1,2-.64,3.46,3.46,0,0,1,1.44.29,4,4,0,0,1,1.24.93h.06l.24-1h2.14V49h-2.75Zm-.82-2.9a2.81,2.81,0,0,0,.82-.73V38a2.52,2.52,0,0,0-1.76-.7,1.67,1.67,0,0,0-1.38.76,3.6,3.6,0,0,0-.56,2.16,4.05,4.05,0,0,0,.5,2.23,1.63,1.63,0,0,0,1.44.75A1.93,1.93,0,0,0,185.11,43Z"/><path class="cls-1" d="M192,44.43a5,5,0,0,1-.75-3V35.3H194v5.83a2.74,2.74,0,0,0,.32,1.53,1.17,1.17,0,0,0,1,.45,1.76,1.76,0,0,0,1-.27,4.14,4.14,0,0,0,.91-.91V35.3H200v9.92h-2.22l-.2-1.4h-.08A5.39,5.39,0,0,1,196.05,45a3.39,3.39,0,0,1-1.7.42A2.67,2.67,0,0,1,192,44.43Z"/><path class="cls-1" d="M210.8,41h-6.13a2.58,2.58,0,0,0,1,1.74,3,3,0,0,0,1.79.56,4.4,4.4,0,0,0,2.21-.66l.9,1.66a6,6,0,0,1-1.65.81,5.94,5.94,0,0,1-1.81.29,5.18,5.18,0,0,1-2.54-.62,4.45,4.45,0,0,1-1.78-1.8,6.15,6.15,0,0,1,0-5.51,4.75,4.75,0,0,1,1.71-1.82,4.31,4.31,0,0,1,2.26-.64,3.8,3.8,0,0,1,3.11,1.31,6.11,6.11,0,0,1,1,4.68Zm-2.22-1.82a2.36,2.36,0,0,0-.44-1.51,1.62,1.62,0,0,0-1.34-.55,1.91,1.91,0,0,0-1.31.51,2.69,2.69,0,0,0-.77,1.55Z"/><path class="cls-1" d="M213.88,45.08a6.21,6.21,0,0,1-1.79-1l1.24-1.72a5.9,5.9,0,0,0,1.33.8,3.36,3.36,0,0,0,1.29.26,1.72,1.72,0,0,0,1-.25.83.83,0,0,0,.34-.71.73.73,0,0,0-.27-.56,2.79,2.79,0,0,0-.77-.45l-1-.41a6.31,6.31,0,0,1-1.93-1.13,2.26,2.26,0,0,1-.75-1.77,2.75,2.75,0,0,1,1-2.21,4.09,4.09,0,0,1,2.71-.85,5.44,5.44,0,0,1,3.43,1.24l-1.22,1.64a3.8,3.8,0,0,0-2.12-.84,1.51,1.51,0,0,0-.93.24.77.77,0,0,0-.31.64.75.75,0,0,0,.4.65,4.5,4.5,0,0,0,.92.43l.68.24a6.15,6.15,0,0,1,2,1.11,2.38,2.38,0,0,1,.73,1.87,2.86,2.86,0,0,1-.47,1.61A3.24,3.24,0,0,1,218,45a5.09,5.09,0,0,1-2.16.42A5.76,5.76,0,0,1,213.88,45.08Z"/><path class="cls-1" d="M223,44.47a4.31,4.31,0,0,1-.8-2.78V37.46H220.8v-2l1.52-.12.32-2.65h2.26V35.3h2.42v2.16h-2.42v4.21q0,1.62,1.32,1.62a3,3,0,0,0,1-.2l.44,2a6.76,6.76,0,0,1-2.14.36A3.06,3.06,0,0,1,223,44.47Z"/><path class="cls-1" d="M229.59,33.34a1.5,1.5,0,0,1,0-2.1,1.71,1.71,0,0,1,2.22,0,1.5,1.5,0,0,1,0,2.1,1.71,1.71,0,0,1-2.22,0Zm-.25,2h2.73v9.92h-2.73Z"/><path class="cls-1" d="M236.6,44.84a4.6,4.6,0,0,1-1.75-1.8,6.16,6.16,0,0,1,0-5.55,4.6,4.6,0,0,1,1.75-1.8,4.83,4.83,0,0,1,4.74,0,4.58,4.58,0,0,1,1.76,1.81,5.64,5.64,0,0,1,.66,2.78,5.58,5.58,0,0,1-.66,2.77,4.59,4.59,0,0,1-1.76,1.8,4.83,4.83,0,0,1-4.74,0Zm3.84-2.39a3.92,3.92,0,0,0,.52-2.17,4,4,0,0,0-.52-2.18,1.74,1.74,0,0,0-2.94,0,4,4,0,0,0-.51,2.18,4,4,0,0,0,.51,2.17,1.76,1.76,0,0,0,2.94,0Z"/><path class="cls-1" d="M245.87,35.3h2.22l.2,1.28h.08a6.63,6.63,0,0,1,1.49-1.11,3.6,3.6,0,0,1,1.71-.41,2.67,2.67,0,0,1,2.31,1,5,5,0,0,1,.75,3v6.17H251.9V39.39a2.81,2.81,0,0,0-.31-1.54,1.15,1.15,0,0,0-1-.44,2,2,0,0,0-1,.24,5.43,5.43,0,0,0-1,.8v6.77h-2.73Z"/><path class="cls-1" d="M257.25,35.3h2.22l.2,1.28h.08a6.63,6.63,0,0,1,1.49-1.11,3.6,3.6,0,0,1,1.71-.41,2.67,2.67,0,0,1,2.31,1,5,5,0,0,1,.75,3v6.17h-2.75V39.39a2.81,2.81,0,0,0-.31-1.54,1.15,1.15,0,0,0-1-.44,2,2,0,0,0-1,.24,5.43,5.43,0,0,0-1,.8v6.77h-2.73Z"/><path class="cls-1" d="M269,44.62a2.94,2.94,0,0,1-.81-2.12A2.77,2.77,0,0,1,269.5,40a10.22,10.22,0,0,1,4.31-1.19,1.47,1.47,0,0,0-1.64-1.6,3.57,3.57,0,0,0-1.26.24,9.52,9.52,0,0,0-1.4.68l-1-1.8a7.88,7.88,0,0,1,4.17-1.3,3.65,3.65,0,0,1,2.89,1.11,4.88,4.88,0,0,1,1,3.32v5.73h-2.24l-.2-1H274a4.54,4.54,0,0,1-2.95,1.28A2.83,2.83,0,0,1,269,44.62Zm3.95-1.51a4.56,4.56,0,0,0,.89-.69v-1.9a6.18,6.18,0,0,0-2.33.66,1.28,1.28,0,0,0-.7,1.1,1,1,0,0,0,.32.79,1.36,1.36,0,0,0,.9.27A1.83,1.83,0,0,0,272.92,43.1Z"/><path class="cls-1" d="M279.39,33.34a1.5,1.5,0,0,1,0-2.1,1.71,1.71,0,0,1,2.22,0,1.5,1.5,0,0,1,0,2.1,1.71,1.71,0,0,1-2.22,0Zm-.25,2h2.73v9.92h-2.73Z"/><path class="cls-1" d="M284.59,35.3h2.22L287,37h.08a4.08,4.08,0,0,1,1.27-1.47,2.7,2.7,0,0,1,1.53-.51,2.94,2.94,0,0,1,1.16.2l-.46,2.36-.36-.09a3,3,0,0,0-.68-.07,2,2,0,0,0-1.24.46,3.38,3.38,0,0,0-1,1.44v5.85h-2.73Z"/><path class="cls-1" d="M300.5,41h-6.13a2.58,2.58,0,0,0,1,1.74,3,3,0,0,0,1.79.56,4.4,4.4,0,0,0,2.21-.66l.9,1.66a6,6,0,0,1-1.65.81,5.94,5.94,0,0,1-1.81.29,5.18,5.18,0,0,1-2.54-.62,4.45,4.45,0,0,1-1.78-1.8,6.15,6.15,0,0,1,0-5.51,4.75,4.75,0,0,1,1.71-1.82,4.31,4.31,0,0,1,2.26-.64,3.8,3.8,0,0,1,3.11,1.31,6.11,6.11,0,0,1,1,4.68Zm-2.22-1.82a2.36,2.36,0,0,0-.44-1.51,1.62,1.62,0,0,0-1.34-.55,1.91,1.91,0,0,0-1.31.51,2.69,2.69,0,0,0-.77,1.55Z"/><path class="cls-1" d="M309.92,34.56v.74h1.82v2.16h-1.82v7.76h-2.75V37.46h-1.32v-2l1.32-.1v-.7a4.09,4.09,0,0,1,.85-2.71,3.29,3.29,0,0,1,2.67-1,5,5,0,0,1,1.92.36l-.5,2a2.75,2.75,0,0,0-1-.22Q309.92,33.05,309.92,34.56Z"/><path class="cls-1" d="M315.2,44.84a4.6,4.6,0,0,1-1.75-1.8,6.16,6.16,0,0,1,0-5.55,4.6,4.6,0,0,1,1.75-1.8,4.83,4.83,0,0,1,4.74,0,4.58,4.58,0,0,1,1.76,1.81,5.64,5.64,0,0,1,.66,2.78A5.58,5.58,0,0,1,321.7,43a4.59,4.59,0,0,1-1.76,1.8,4.83,4.83,0,0,1-4.74,0ZM319,42.44a3.92,3.92,0,0,0,.52-2.17,4,4,0,0,0-.52-2.18,1.74,1.74,0,0,0-2.94,0,4,4,0,0,0-.51,2.18,4,4,0,0,0,.51,2.17,1.76,1.76,0,0,0,2.94,0Z"/><path class="cls-1" d="M324.47,35.3h2.22l.2,1.74H327a4.08,4.08,0,0,1,1.27-1.47,2.7,2.7,0,0,1,1.53-.51,2.94,2.94,0,0,1,1.16.2l-.46,2.36-.36-.09a3,3,0,0,0-.68-.07,2,2,0,0,0-1.24.46,3.38,3.38,0,0,0-1,1.44v5.85h-2.73Z"/><path class="cls-1" d="M336.54,33.34a1.5,1.5,0,0,1,0-2.1,1.71,1.71,0,0,1,2.22,0,1.5,1.5,0,0,1,0,2.1,1.71,1.71,0,0,1-2.22,0Zm-.25,2H339v9.92h-2.73Z"/><path class="cls-1" d="M341.74,35.3H344l.2,1.28h.08a6.63,6.63,0,0,1,1.49-1.11,3.6,3.6,0,0,1,1.71-.41,2.67,2.67,0,0,1,2.31,1,5,5,0,0,1,.75,3v6.17h-2.75V39.39a2.81,2.81,0,0,0-.31-1.54,1.15,1.15,0,0,0-1-.44,2,2,0,0,0-1,.24,5.43,5.43,0,0,0-1,.8v6.77h-2.73Z"/><path class="cls-1" d="M359.1,45.88l.1-1.56a4.07,4.07,0,0,1-1.2.83,3.26,3.26,0,0,1-1.36.31,3.57,3.57,0,0,1-3-1.38,6,6,0,0,1-1.09-3.81,6.16,6.16,0,0,1,.58-2.75,4.57,4.57,0,0,1,1.53-1.82,3.55,3.55,0,0,1,2-.64,3.46,3.46,0,0,1,1.44.29,4,4,0,0,1,1.24.93h.06l.24-1h2.14V49H359.1Zm-.82-2.9a2.81,2.81,0,0,0,.82-.73V38a2.52,2.52,0,0,0-1.76-.7,1.67,1.67,0,0,0-1.38.76,3.6,3.6,0,0,0-.56,2.16,4.05,4.05,0,0,0,.5,2.23,1.63,1.63,0,0,0,1.44.75A1.93,1.93,0,0,0,358.27,43Z"/><path class="cls-1" d="M365.2,44.43a5,5,0,0,1-.75-3V35.3h2.73v5.83a2.74,2.74,0,0,0,.32,1.53,1.17,1.17,0,0,0,1,.45,1.76,1.76,0,0,0,1-.27,4.14,4.14,0,0,0,.91-.91V35.3h2.73v9.92h-2.22l-.2-1.4h-.08A5.39,5.39,0,0,1,369.22,45a3.39,3.39,0,0,1-1.7.42A2.67,2.67,0,0,1,365.2,44.43Z"/><path class="cls-1" d="M376.12,33.34a1.5,1.5,0,0,1,0-2.1,1.71,1.71,0,0,1,2.22,0,1.5,1.5,0,0,1,0,2.1,1.71,1.71,0,0,1-2.22,0Zm-.25,2h2.73v9.92h-2.73Z"/><path class="cls-1" d="M381.32,35.3h2.22l.2,1.74h.08a4.08,4.08,0,0,1,1.27-1.47,2.7,2.7,0,0,1,1.53-.51,2.94,2.94,0,0,1,1.16.2l-.46,2.36-.36-.09a3,3,0,0,0-.68-.07,2,2,0,0,0-1.24.46,3.38,3.38,0,0,0-1,1.44v5.85h-2.73Z"/><path class="cls-1" d="M389.39,33.34a1.5,1.5,0,0,1,0-2.1,1.71,1.71,0,0,1,2.22,0,1.5,1.5,0,0,1,0,2.1,1.71,1.71,0,0,1-2.22,0Zm-.25,2h2.73v9.92h-2.73Z"/><path class="cls-1" d="M394.58,35.3h2.22l.2,1.28h.08a6.63,6.63,0,0,1,1.49-1.11,3.6,3.6,0,0,1,1.71-.41,2.67,2.67,0,0,1,2.31,1,5,5,0,0,1,.75,3v6.17h-2.75V39.39a2.81,2.81,0,0,0-.31-1.54,1.15,1.15,0,0,0-1-.44,2,2,0,0,0-1,.24,5.43,5.43,0,0,0-1,.8v6.77h-2.73Z"/><path class="cls-1" d="M406.48,48.84A2,2,0,0,1,405.33,47a2.35,2.35,0,0,1,1.42-2v-.08a1.88,1.88,0,0,1-.9-1.68,1.92,1.92,0,0,1,.31-1,2.66,2.66,0,0,1,.79-.82v-.08a3.14,3.14,0,0,1-1.32-2.59,3.35,3.35,0,0,1,.55-1.93,3.5,3.5,0,0,1,1.47-1.23,4.77,4.77,0,0,1,2-.42,5,5,0,0,1,1.52.24h3.59v2H413.1a2.07,2.07,0,0,1,.3.63,2.68,2.68,0,0,1,.12.79,3,3,0,0,1-1.08,2.49,4.34,4.34,0,0,1-2.79.86,4,4,0,0,1-1.24-.2,1.52,1.52,0,0,0-.3.35.89.89,0,0,0-.1.45.63.63,0,0,0,.35.58,2.5,2.5,0,0,0,1.17.2h1.66a5.23,5.23,0,0,1,2.79.6,2.09,2.09,0,0,1,.94,1.9,2.78,2.78,0,0,1-.67,1.81,4.33,4.33,0,0,1-1.9,1.26,8.35,8.35,0,0,1-2.87.45A6.13,6.13,0,0,1,406.48,48.84Zm5.14-1.47a1.12,1.12,0,0,0,.68-1,.67.67,0,0,0-.38-.66,3,3,0,0,0-1.2-.18h-1.14a5.1,5.1,0,0,1-1.36-.14,1.41,1.41,0,0,0-.62,1.08,1,1,0,0,0,.62.92,3.7,3.7,0,0,0,1.68.32A3.42,3.42,0,0,0,411.62,47.37Zm-.89-7.42a1.89,1.89,0,0,0,.41-1.3,1.83,1.83,0,0,0-.41-1.27,1.38,1.38,0,0,0-1.07-.45,1.35,1.35,0,0,0-1.06.45,1.85,1.85,0,0,0-.4,1.27,1.9,1.9,0,0,0,.41,1.29,1.33,1.33,0,0,0,1.05.47A1.37,1.37,0,0,0,410.73,39.95Z"/><path class="cls-1" d="M421.25,44.43a5,5,0,0,1-.75-3V35.3h2.73v5.83a2.74,2.74,0,0,0,.32,1.53,1.17,1.17,0,0,0,1,.45,1.76,1.76,0,0,0,1-.27,4.14,4.14,0,0,0,.91-.91V35.3h2.73v9.92H427l-.2-1.4h-.08A5.39,5.39,0,0,1,425.27,45a3.39,3.39,0,0,1-1.7.42A2.67,2.67,0,0,1,421.25,44.43Z"/><path class="cls-1" d="M432.79,45.08a6.21,6.21,0,0,1-1.79-1l1.24-1.72a5.9,5.9,0,0,0,1.33.8,3.36,3.36,0,0,0,1.29.26,1.72,1.72,0,0,0,1-.25.83.83,0,0,0,.34-.71.73.73,0,0,0-.27-.56,2.79,2.79,0,0,0-.77-.45l-1-.41a6.31,6.31,0,0,1-1.93-1.13,2.26,2.26,0,0,1-.75-1.77,2.75,2.75,0,0,1,1-2.21,4.09,4.09,0,0,1,2.71-.85,5.44,5.44,0,0,1,3.43,1.24l-1.22,1.64a3.8,3.8,0,0,0-2.12-.84,1.51,1.51,0,0,0-.93.24.77.77,0,0,0-.31.64.75.75,0,0,0,.4.65,4.5,4.5,0,0,0,.92.43l.68.24a6.15,6.15,0,0,1,2,1.11,2.38,2.38,0,0,1,.73,1.87,2.86,2.86,0,0,1-.47,1.61A3.24,3.24,0,0,1,436.95,45a5.09,5.09,0,0,1-2.16.42A5.76,5.76,0,0,1,432.79,45.08Z"/><path class="cls-1" d="M448.81,41h-6.13a2.58,2.58,0,0,0,1,1.74,3,3,0,0,0,1.79.56,4.4,4.4,0,0,0,2.21-.66l.9,1.66a6,6,0,0,1-1.65.81,5.94,5.94,0,0,1-1.81.29,5.18,5.18,0,0,1-2.54-.62,4.45,4.45,0,0,1-1.78-1.8,6.15,6.15,0,0,1,0-5.51,4.75,4.75,0,0,1,1.71-1.82,4.31,4.31,0,0,1,2.26-.64,3.8,3.8,0,0,1,3.11,1.31,6.11,6.11,0,0,1,1,4.68Zm-2.22-1.82a2.36,2.36,0,0,0-.44-1.51,1.62,1.62,0,0,0-1.34-.55,1.91,1.91,0,0,0-1.31.51,2.69,2.69,0,0,0-.77,1.55Z"/><path class="cls-1" d="M451,35.3h2.22l.2,1.74h.08a4.08,4.08,0,0,1,1.27-1.47,2.7,2.7,0,0,1,1.53-.51,2.94,2.94,0,0,1,1.16.2L457,37.62l-.36-.09a3,3,0,0,0-.68-.07,2,2,0,0,0-1.24.46,3.38,3.38,0,0,0-1,1.44v5.85H451Z"/><path class="cls-1" d="M462.84,35.3h2.22l.2,1.28h.08a6.63,6.63,0,0,1,1.49-1.11,3.6,3.6,0,0,1,1.71-.41,2.67,2.67,0,0,1,2.31,1,5,5,0,0,1,.75,3v6.17h-2.75V39.39a2.81,2.81,0,0,0-.31-1.54,1.15,1.15,0,0,0-1-.44,2,2,0,0,0-1,.24,5.43,5.43,0,0,0-1,.8v6.77h-2.73Z"/><path class="cls-1" d="M482.32,41h-6.13a2.58,2.58,0,0,0,1,1.74,3,3,0,0,0,1.79.56,4.4,4.4,0,0,0,2.21-.66l.9,1.66a6,6,0,0,1-1.65.81,5.94,5.94,0,0,1-1.81.29,5.18,5.18,0,0,1-2.54-.62,4.45,4.45,0,0,1-1.78-1.8,6.15,6.15,0,0,1,0-5.51A4.75,4.75,0,0,1,476,35.7a4.31,4.31,0,0,1,2.26-.64,3.8,3.8,0,0,1,3.11,1.31,6.11,6.11,0,0,1,1,4.68Zm-2.22-1.82a2.36,2.36,0,0,0-.44-1.51,1.62,1.62,0,0,0-1.34-.55,1.91,1.91,0,0,0-1.31.51,2.69,2.69,0,0,0-.77,1.55Z"/><path class="cls-1" d="M492.62,41h-6.13a2.58,2.58,0,0,0,1,1.74,3,3,0,0,0,1.79.56,4.4,4.4,0,0,0,2.21-.66l.9,1.66a6,6,0,0,1-1.65.81,5.94,5.94,0,0,1-1.81.29,5.18,5.18,0,0,1-2.54-.62,4.45,4.45,0,0,1-1.78-1.8,6.15,6.15,0,0,1,0-5.51,4.75,4.75,0,0,1,1.71-1.82,4.31,4.31,0,0,1,2.26-.64,3.8,3.8,0,0,1,3.11,1.31,6.11,6.11,0,0,1,1,4.68Zm-2.22-1.82a2.36,2.36,0,0,0-.44-1.51,1.62,1.62,0,0,0-1.34-.55,1.91,1.91,0,0,0-1.31.51,2.69,2.69,0,0,0-.77,1.55Z"/><path class="cls-1" d="M495.38,44.07a6,6,0,0,1-1.09-3.81,6.16,6.16,0,0,1,.58-2.75,4.57,4.57,0,0,1,1.53-1.82,3.55,3.55,0,0,1,2-.64,3.18,3.18,0,0,1,1.34.26,4.49,4.49,0,0,1,1.14.8l-.1-1.54V31.13h2.75V45.22H501.3l-.2-1H501a4.77,4.77,0,0,1-1.27.91,3.21,3.21,0,0,1-1.43.35A3.57,3.57,0,0,1,495.38,44.07ZM500,43a2.81,2.81,0,0,0,.82-.73V38a2.52,2.52,0,0,0-1.76-.7,1.67,1.67,0,0,0-1.38.76,3.6,3.6,0,0,0-.56,2.16,4.05,4.05,0,0,0,.5,2.23,1.63,1.63,0,0,0,1.44.75A1.93,1.93,0,0,0,500,43Z"/><path class="cls-1" d="M507.12,45.08a6.21,6.21,0,0,1-1.79-1l1.24-1.72a5.9,5.9,0,0,0,1.33.8,3.36,3.36,0,0,0,1.29.26,1.72,1.72,0,0,0,1-.25.83.83,0,0,0,.34-.71.73.73,0,0,0-.27-.56,2.79,2.79,0,0,0-.77-.45l-1-.41a6.31,6.31,0,0,1-1.93-1.13,2.26,2.26,0,0,1-.75-1.77,2.75,2.75,0,0,1,1-2.21,4.09,4.09,0,0,1,2.71-.85A5.44,5.44,0,0,1,513,36.3l-1.22,1.64a3.8,3.8,0,0,0-2.12-.84,1.51,1.51,0,0,0-.93.24.77.77,0,0,0-.31.64.75.75,0,0,0,.4.65,4.5,4.5,0,0,0,.92.43l.68.24a6.15,6.15,0,0,1,2,1.11,2.38,2.38,0,0,1,.73,1.87,2.86,2.86,0,0,1-.47,1.61A3.24,3.24,0,0,1,511.28,45a5.09,5.09,0,0,1-2.16.42A5.76,5.76,0,0,1,507.12,45.08Z"/><path class="cls-1" d="M336.88,161.2a6.68,6.68,0,0,1-2.22-1.41l1.58-1.88a6,6,0,0,0,1.59,1,4.22,4.22,0,0,0,1.69.38,2.48,2.48,0,0,0,1.47-.37,1.2,1.2,0,0,0,.51-1,1.07,1.07,0,0,0-.23-.7,1.82,1.82,0,0,0-.58-.46q-.35-.18-1.13-.5l-1.72-.74a4.92,4.92,0,0,1-1.9-1.35,3.27,3.27,0,0,1-.74-2.19,3.37,3.37,0,0,1,.59-1.93,4.1,4.1,0,0,1,1.63-1.38,5.25,5.25,0,0,1,2.34-.51,5.88,5.88,0,0,1,2.24.45,5.72,5.72,0,0,1,1.9,1.25l-1.38,1.74a5.33,5.33,0,0,0-1.34-.8,3.85,3.85,0,0,0-1.42-.26,2.21,2.21,0,0,0-1.3.34,1.09,1.09,0,0,0-.48.94,1,1,0,0,0,.25.7,2,2,0,0,0,.62.46q.37.18,1.15.5l1.68.68a4.74,4.74,0,0,1,1.94,1.37,3.37,3.37,0,0,1,.68,2.17,3.68,3.68,0,0,1-.58,2,4.06,4.06,0,0,1-1.68,1.45,5.8,5.8,0,0,1-2.58.54A7.07,7.07,0,0,1,336.88,161.2Z"/><path class="cls-1" d="M347,160.66a5,5,0,0,1-.75-3v-6.17H349v5.83a2.74,2.74,0,0,0,.32,1.53,1.17,1.17,0,0,0,1,.45,1.76,1.76,0,0,0,1-.27,4.14,4.14,0,0,0,.91-.91v-6.63H355v9.92h-2.22l-.2-1.4h-.08a5.39,5.39,0,0,1-1.42,1.22,3.39,3.39,0,0,1-1.7.42A2.67,2.67,0,0,1,347,160.66Z"/><path class="cls-1" d="M357.68,151.53h2.22l.2,1.3h.08a6.54,6.54,0,0,1,1.42-1.14,3.13,3.13,0,0,1,1.58-.4,3.07,3.07,0,0,1,1.7.43,2.89,2.89,0,0,1,1,1.27,7.48,7.48,0,0,1,1.5-1.25,3.07,3.07,0,0,1,1.62-.45,2.69,2.69,0,0,1,2.33,1,4.92,4.92,0,0,1,.76,2.95v6.17h-2.73v-5.83a2.81,2.81,0,0,0-.31-1.53,1.14,1.14,0,0,0-1-.45,2.8,2.8,0,0,0-1.82,1v6.77h-2.73v-5.83a2.81,2.81,0,0,0-.31-1.53,1.14,1.14,0,0,0-1-.45,2.8,2.8,0,0,0-1.82,1v6.77h-2.73Z"/><path class="cls-1" d="M374.78,151.53H377l.2,1.3h.08a6.54,6.54,0,0,1,1.42-1.14,3.13,3.13,0,0,1,1.58-.4,3.07,3.07,0,0,1,1.7.43,2.89,2.89,0,0,1,1,1.27,7.48,7.48,0,0,1,1.5-1.25,3.07,3.07,0,0,1,1.62-.45,2.69,2.69,0,0,1,2.33,1,4.92,4.92,0,0,1,.76,2.95v6.17h-2.73v-5.83a2.81,2.81,0,0,0-.31-1.53,1.14,1.14,0,0,0-1-.45,2.8,2.8,0,0,0-1.82,1v6.77h-2.73v-5.83a2.81,2.81,0,0,0-.31-1.53,1.14,1.14,0,0,0-1-.45,2.8,2.8,0,0,0-1.82,1v6.77h-2.73Z"/><path class="cls-1" d="M392.2,160.85a2.94,2.94,0,0,1-.81-2.12,2.77,2.77,0,0,1,1.34-2.45,10.22,10.22,0,0,1,4.31-1.19,1.47,1.47,0,0,0-1.64-1.6,3.57,3.57,0,0,0-1.26.24,9.52,9.52,0,0,0-1.4.68l-1-1.8a7.88,7.88,0,0,1,4.17-1.3,3.65,3.65,0,0,1,2.89,1.11,4.88,4.88,0,0,1,1,3.32v5.73h-2.24l-.2-1h-.06a4.54,4.54,0,0,1-2.95,1.28A2.83,2.83,0,0,1,392.2,160.85Zm3.95-1.51a4.56,4.56,0,0,0,.89-.69v-1.9a6.18,6.18,0,0,0-2.33.66,1.28,1.28,0,0,0-.7,1.1,1,1,0,0,0,.32.79,1.36,1.36,0,0,0,.9.27A1.83,1.83,0,0,0,396.15,159.34Z"/><path class="cls-1" d="M402.37,151.53h2.22l.2,1.74h.08a4.08,4.08,0,0,1,1.27-1.47,2.7,2.7,0,0,1,1.53-.51,2.94,2.94,0,0,1,1.16.2l-.46,2.36-.36-.09a3,3,0,0,0-.68-.07,2,2,0,0,0-1.24.46,3.38,3.38,0,0,0-1,1.44v5.85h-2.73Z"/><path class="cls-1" d="M409.77,165.2l.5-2.1a2.26,2.26,0,0,0,.68.14,1.82,1.82,0,0,0,1.8-1.44l.16-.56-3.85-9.7h2.77l1.5,4.47q.24.7.56,1.86.14.54.26.94h.08q.26-1.14.7-2.81l1.3-4.47h2.63l-3.49,10.14a7.57,7.57,0,0,1-1.66,2.83,3.55,3.55,0,0,1-2.57.9A4.76,4.76,0,0,1,409.77,165.2Z"/><path class="cls-1" d="M346.36,185.13a4.25,4.25,0,0,1-1.62-1.75,5.86,5.86,0,0,1-.59-2.73,5.63,5.63,0,0,1,.63-2.73,4.43,4.43,0,0,1,1.69-1.77,4.54,4.54,0,0,1,2.3-.61,4,4,0,0,1,2.83,1.16l-.76,1a4,4,0,0,0-1-.67,2.38,2.38,0,0,0-1-.23,2.82,2.82,0,0,0-1.62.49,3.3,3.3,0,0,0-1.13,1.37,4.73,4.73,0,0,0-.41,2,4.32,4.32,0,0,0,.86,2.81,2.78,2.78,0,0,0,2.26,1.06,3.47,3.47,0,0,0,2.37-1l.64,1a5.2,5.2,0,0,1-1.46.91,4.32,4.32,0,0,1-1.66.33A4.46,4.46,0,0,1,346.36,185.13Z"/><path class="cls-1" d="M354.39,185.23a2.51,2.51,0,0,1-.38-1.51V171.19h1.44v12.65a.83.83,0,0,0,.13.51.4.4,0,0,0,.33.17,1.85,1.85,0,0,0,.36,0l.2,1.12a2.55,2.55,0,0,1-.88.14A1.4,1.4,0,0,1,354.39,185.23Z"/><path class="cls-1" d="M366.37,181h-6.71a3.89,3.89,0,0,0,1.05,2.65,3.19,3.19,0,0,0,2.33.94,4.41,4.41,0,0,0,2.46-.78l.54,1a7.25,7.25,0,0,1-1.48.73,5.06,5.06,0,0,1-1.7.27,4.56,4.56,0,0,1-2.33-.61,4.32,4.32,0,0,1-1.66-1.77,6.25,6.25,0,0,1,0-5.39,4.59,4.59,0,0,1,1.61-1.79,3.92,3.92,0,0,1,2.13-.63,3.47,3.47,0,0,1,2.82,1.21,5.06,5.06,0,0,1,1,3.34A5.37,5.37,0,0,1,366.37,181Zm-1.24-1.06a3.7,3.7,0,0,0-.66-2.36,2.23,2.23,0,0,0-1.84-.82,2.68,2.68,0,0,0-1.92.82,3.72,3.72,0,0,0-1,2.36Z"/><path class="cls-1" d="M369,185a2.58,2.58,0,0,1-.8-2,2.68,2.68,0,0,1,1.44-2.44,12,12,0,0,1,4.61-1.19,3.41,3.41,0,0,0-.47-1.87,1.77,1.77,0,0,0-1.61-.73,5.31,5.31,0,0,0-2.95,1.06l-.58-1a6.79,6.79,0,0,1,3.77-1.28,2.93,2.93,0,0,1,2.49,1.05,4.68,4.68,0,0,1,.8,2.9v6h-1.2l-.12-1.18h-.06a5.25,5.25,0,0,1-3.27,1.42A2.94,2.94,0,0,1,369,185Zm3.8-.79a6.67,6.67,0,0,0,1.45-1v-2.85a9.78,9.78,0,0,0-3.56.92,1.86,1.86,0,0,0-1.05,1.64,1.5,1.5,0,0,0,.5,1.23,2,2,0,0,0,1.28.41A3.08,3.08,0,0,0,372.83,184.23Z"/><path class="cls-1" d="M378.92,175.78h1.2l.12,1.44h.06a7.6,7.6,0,0,1,1.57-1.24,3.36,3.36,0,0,1,1.69-.44,2.63,2.63,0,0,1,2.24,1,4.65,4.65,0,0,1,.72,2.84v6.17h-1.46v-6a3.62,3.62,0,0,0-.45-2,1.67,1.67,0,0,0-1.47-.64,2.58,2.58,0,0,0-1.34.37,7.92,7.92,0,0,0-1.44,1.19v7.11h-1.44Z"/><path class="cls-1" d="M389.82,173.42a1,1,0,0,1-.28-.74.94.94,0,0,1,.28-.71,1.1,1.1,0,0,1,1.44,0,.94.94,0,0,1,.28.71,1,1,0,0,1-.28.74,1.07,1.07,0,0,1-1.44,0Zm0,2.36h1.44v9.72H389.8Z"/><path class="cls-1" d="M394.65,175.78h1.2l.12,1.44H396A7.6,7.6,0,0,1,397.6,176a3.36,3.36,0,0,1,1.69-.44,2.63,2.63,0,0,1,2.24,1,4.65,4.65,0,0,1,.72,2.84v6.17H400.8v-6a3.62,3.62,0,0,0-.45-2,1.67,1.67,0,0,0-1.47-.64,2.58,2.58,0,0,0-1.34.37,7.92,7.92,0,0,0-1.44,1.19v7.11h-1.44Z"/><path class="cls-1" d="M405.86,189.33a2.18,2.18,0,0,1-1.09-1.92,2.21,2.21,0,0,1,.37-1.2,3.64,3.64,0,0,1,1.05-1v-.08a1.9,1.9,0,0,1-.62-.64,1.8,1.8,0,0,1-.24-.94,1.84,1.84,0,0,1,.31-1,2.76,2.76,0,0,1,.75-.77v-.08a3.49,3.49,0,0,1-.88-1.1,3.16,3.16,0,0,1-.36-1.5,3.43,3.43,0,0,1,.48-1.81,3.28,3.28,0,0,1,1.3-1.22,3.82,3.82,0,0,1,1.8-.43,4,4,0,0,1,1.34.24h3.37v1.14h-2.06a2.75,2.75,0,0,1,.62.92,3,3,0,0,1,.24,1.18,3.4,3.4,0,0,1-.46,1.77,3.15,3.15,0,0,1-1.26,1.19,3.78,3.78,0,0,1-1.78.42,3.27,3.27,0,0,1-1.48-.34,2.24,2.24,0,0,0-.49.53,1.24,1.24,0,0,0-.17.67,1,1,0,0,0,.39.81,2.3,2.3,0,0,0,1.33.29h1.94a4.53,4.53,0,0,1,2.53.56,2,2,0,0,1,.82,1.74,2.64,2.64,0,0,1-.6,1.65,4.12,4.12,0,0,1-1.7,1.23,6.5,6.5,0,0,1-2.52.46A5.34,5.34,0,0,1,405.86,189.33Zm4.77-.63a2.72,2.72,0,0,0,1.13-.78,1.61,1.61,0,0,0,.4-1,1,1,0,0,0-.5-1,3.12,3.12,0,0,0-1.52-.29h-1.78a5,5,0,0,1-1.24-.16,2.12,2.12,0,0,0-1.06,1.74,1.47,1.47,0,0,0,.78,1.3A4.08,4.08,0,0,0,409,189,4.46,4.46,0,0,0,410.63,188.7Zm-.36-8a2.71,2.71,0,0,0,0-3.47,2,2,0,0,0-1.54-.65,2.08,2.08,0,0,0-1.55.65,2.39,2.39,0,0,0-.63,1.73,2.43,2.43,0,0,0,.63,1.73,2,2,0,0,0,1.55.67A2,2,0,0,0,410.27,180.74Z"/><path class="cls-1" d="M356.23,199.83h1.2l.12,1.78h.06a4.4,4.4,0,0,1,1.22-1.48,2.53,2.53,0,0,1,1.54-.54,2.31,2.31,0,0,1,1,.2l-.28,1.28a3.2,3.2,0,0,0-.92-.16,2.11,2.11,0,0,0-1.35.56,4.37,4.37,0,0,0-1.15,1.74v6.33h-1.44Z"/><path class="cls-1" d="M370.4,205h-6.71a3.89,3.89,0,0,0,1.05,2.65,3.19,3.19,0,0,0,2.33.94,4.41,4.41,0,0,0,2.46-.78l.54,1a7.25,7.25,0,0,1-1.48.73,5.06,5.06,0,0,1-1.7.27,4.56,4.56,0,0,1-2.33-.61,4.32,4.32,0,0,1-1.66-1.77,6.25,6.25,0,0,1,0-5.39,4.59,4.59,0,0,1,1.61-1.79,3.92,3.92,0,0,1,2.13-.63,3.47,3.47,0,0,1,2.82,1.21,5.06,5.06,0,0,1,1,3.34A5.37,5.37,0,0,1,370.4,205ZM369.16,204a3.7,3.7,0,0,0-.66-2.36,2.23,2.23,0,0,0-1.84-.82,2.68,2.68,0,0,0-1.92.82,3.72,3.72,0,0,0-1,2.36Z"/><path class="cls-1" d="M372.9,199.83h1.2l.12,1.16h.06a5.13,5.13,0,0,1,3.15-1.4,3.34,3.34,0,0,1,2.86,1.33,5.93,5.93,0,0,1,1,3.62,6.31,6.31,0,0,1-.58,2.8,4.45,4.45,0,0,1-1.54,1.82,3.73,3.73,0,0,1-2.08.63,4.58,4.58,0,0,1-2.77-1.14l0,1.72v3.35H372.9Zm5.44,8.23a3.23,3.23,0,0,0,1.05-1.39,5.38,5.38,0,0,0,.38-2.1,5,5,0,0,0-.65-2.74,2.26,2.26,0,0,0-2-1,4.32,4.32,0,0,0-2.75,1.4v5.25a4.66,4.66,0,0,0,1.3.81,3.27,3.27,0,0,0,1.18.25A2.5,2.5,0,0,0,378.35,208.05Z"/><path class="cls-1" d="M385.45,209.18a4.4,4.4,0,0,1-1.63-1.76,5.72,5.72,0,0,1-.61-2.72,5.78,5.78,0,0,1,.61-2.73,4.39,4.39,0,0,1,1.63-1.77,4.35,4.35,0,0,1,4.45,0,4.39,4.39,0,0,1,1.63,1.77,5.78,5.78,0,0,1,.61,2.73,5.72,5.72,0,0,1-.61,2.72,4.4,4.4,0,0,1-1.63,1.76,4.35,4.35,0,0,1-4.45,0Zm3.76-1.09a3.18,3.18,0,0,0,1.05-1.36,5.57,5.57,0,0,0,0-4,3.25,3.25,0,0,0-1.05-1.37,2.64,2.64,0,0,0-3.07,0,3.17,3.17,0,0,0-1,1.37,5.17,5.17,0,0,0-.37,2,4.46,4.46,0,0,0,.82,2.81,2.67,2.67,0,0,0,3.66.58Z"/><path class="cls-1" d="M394.79,199.83H396l.12,1.78h.06a4.4,4.4,0,0,1,1.22-1.48,2.53,2.53,0,0,1,1.54-.54,2.31,2.31,0,0,1,1,.2l-.28,1.28a3.2,3.2,0,0,0-.92-.16,2.11,2.11,0,0,0-1.35.56,4.37,4.37,0,0,0-1.15,1.74v6.33h-1.44Z"/><path class="cls-1" d="M402.48,209a3.83,3.83,0,0,1-.62-2.34V201H400.4v-1.1l1.52-.1.18-2.75h1.22v2.75H406V201h-2.67v5.63a2.45,2.45,0,0,0,.35,1.44,1.38,1.38,0,0,0,1.19.48,3.44,3.44,0,0,0,1.12-.26l.3,1.1a5.85,5.85,0,0,1-1.74.36A2.42,2.42,0,0,1,402.48,209Z"/><path class="cls-1" d="M160.92,148.37h3.63a6.7,6.7,0,0,1,4.8,1.62,6.4,6.4,0,0,1,1.71,4.87,6.62,6.62,0,0,1-1.69,4.92,6.34,6.34,0,0,1-4.66,1.67h-3.79Zm3.47,10.86q3.85,0,3.85-4.37a4.52,4.52,0,0,0-1-3.27,3.85,3.85,0,0,0-2.86-1h-.72v8.64Z"/><path class="cls-1" d="M173.69,160.85a2.94,2.94,0,0,1-.81-2.12,2.77,2.77,0,0,1,1.34-2.45,10.22,10.22,0,0,1,4.31-1.19,1.47,1.47,0,0,0-1.64-1.6,3.57,3.57,0,0,0-1.26.24,9.52,9.52,0,0,0-1.4.68l-1-1.8a7.88,7.88,0,0,1,4.17-1.3,3.65,3.65,0,0,1,2.89,1.11,4.88,4.88,0,0,1,1,3.32v5.73H179l-.2-1h-.06a4.54,4.54,0,0,1-2.95,1.28A2.83,2.83,0,0,1,173.69,160.85Zm3.95-1.51a4.56,4.56,0,0,0,.89-.69v-1.9a6.18,6.18,0,0,0-2.33.66,1.28,1.28,0,0,0-.7,1.1,1,1,0,0,0,.32.79,1.36,1.36,0,0,0,.9.27A1.83,1.83,0,0,0,177.64,159.34Z"/><path class="cls-1" d="M185,160.7a4.31,4.31,0,0,1-.8-2.78V153.7h-1.38v-2l1.52-.12.32-2.65H187v2.65h2.42v2.16H187v4.21q0,1.62,1.32,1.62a3,3,0,0,0,1-.2l.44,2a6.76,6.76,0,0,1-2.14.36A3.06,3.06,0,0,1,185,160.7Z"/><path class="cls-1" d="M191.73,160.85a2.94,2.94,0,0,1-.81-2.12,2.77,2.77,0,0,1,1.34-2.45,10.22,10.22,0,0,1,4.31-1.19,1.47,1.47,0,0,0-1.64-1.6,3.57,3.57,0,0,0-1.26.24,9.52,9.52,0,0,0-1.4.68l-1-1.8a7.88,7.88,0,0,1,4.17-1.3,3.65,3.65,0,0,1,2.89,1.11,4.88,4.88,0,0,1,1,3.32v5.73h-2.24l-.2-1h-.06a4.54,4.54,0,0,1-2.95,1.28A2.83,2.83,0,0,1,191.73,160.85Zm3.95-1.51a4.56,4.56,0,0,0,.89-.69v-1.9a6.18,6.18,0,0,0-2.33.66,1.28,1.28,0,0,0-.7,1.1,1,1,0,0,0,.32.79,1.36,1.36,0,0,0,.9.27A1.83,1.83,0,0,0,195.68,159.34Z"/><path class="cls-1" d="M202.26,154.58a1.9,1.9,0,0,1,0-2.53,1.69,1.69,0,0,1,2.4,0,1.9,1.9,0,0,1,0,2.53,1.69,1.69,0,0,1-2.4,0Zm0,6.61a1.9,1.9,0,0,1,0-2.52,1.69,1.69,0,0,1,2.4,0,1.9,1.9,0,0,1,0,2.52,1.69,1.69,0,0,1-2.4,0Z"/><path class="cls-1" d="M160.32,184.28h2.95v-9.72h-2.32v-.94a7.79,7.79,0,0,0,2.67-.9h1.12v11.56h2.67v1.22h-7.07Z"/><path class="cls-1" d="M170,185.41a1.15,1.15,0,0,1-.32-.83,1.17,1.17,0,0,1,.32-.85,1.09,1.09,0,0,1,1.56,0,1.17,1.17,0,0,1,.32.85,1.15,1.15,0,0,1-.32.83,1.09,1.09,0,0,1-1.56,0Z"/><path class="cls-1" d="M181,184.92a5.51,5.51,0,0,1-2-2.36,9.28,9.28,0,0,1,0-7.24,5.57,5.57,0,0,1,2.06-2.38,5.49,5.49,0,0,1,3-.83,4.46,4.46,0,0,1,2,.46,5.23,5.23,0,0,1,1.54,1.14l-.82,1a3.53,3.53,0,0,0-2.73-1.28,3.82,3.82,0,0,0-2.24.67,4.35,4.35,0,0,0-1.49,1.9,7.32,7.32,0,0,0-.53,2.92,7.75,7.75,0,0,0,.51,2.94,4.3,4.3,0,0,0,1.46,1.93,3.73,3.73,0,0,0,2.23.68,3.65,3.65,0,0,0,1.67-.38,5.19,5.19,0,0,0,1.45-1.14l.82.92a5.55,5.55,0,0,1-1.78,1.42,5,5,0,0,1-2.22.48A5.35,5.35,0,0,1,181,184.92Z"/><path class="cls-1" d="M190.72,185.23a2.51,2.51,0,0,1-.38-1.51V171.19h1.44v12.65a.83.83,0,0,0,.13.51.4.4,0,0,0,.33.17,1.85,1.85,0,0,0,.36,0l.2,1.12a2.55,2.55,0,0,1-.88.14A1.4,1.4,0,0,1,190.72,185.23Z"/><path class="cls-1" d="M202.7,181H196a3.89,3.89,0,0,0,1.05,2.65,3.19,3.19,0,0,0,2.33.94,4.41,4.41,0,0,0,2.46-.78l.54,1a7.25,7.25,0,0,1-1.48.73,5.06,5.06,0,0,1-1.7.27,4.56,4.56,0,0,1-2.33-.61,4.32,4.32,0,0,1-1.66-1.77,6.25,6.25,0,0,1,0-5.39,4.59,4.59,0,0,1,1.61-1.79,3.92,3.92,0,0,1,2.13-.63,3.47,3.47,0,0,1,2.82,1.21,5.06,5.06,0,0,1,1,3.34A5.37,5.37,0,0,1,202.7,181Zm-1.24-1.06a3.7,3.7,0,0,0-.66-2.36,2.23,2.23,0,0,0-1.84-.82,2.68,2.68,0,0,0-1.92.82,3.72,3.72,0,0,0-1,2.36Z"/><path class="cls-1" d="M205.37,185a2.58,2.58,0,0,1-.8-2,2.68,2.68,0,0,1,1.44-2.44,12,12,0,0,1,4.61-1.19,3.41,3.41,0,0,0-.47-1.87,1.77,1.77,0,0,0-1.61-.73,5.31,5.31,0,0,0-2.95,1.06l-.58-1a6.79,6.79,0,0,1,3.77-1.28,2.93,2.93,0,0,1,2.49,1.05,4.68,4.68,0,0,1,.8,2.9v6h-1.2l-.12-1.18h-.06a5.25,5.25,0,0,1-3.27,1.42A2.94,2.94,0,0,1,205.37,185Zm3.8-.79a6.67,6.67,0,0,0,1.45-1v-2.85a9.78,9.78,0,0,0-3.56.92,1.86,1.86,0,0,0-1.05,1.64,1.5,1.5,0,0,0,.5,1.23,2,2,0,0,0,1.28.41A3.08,3.08,0,0,0,209.16,184.23Z"/><path class="cls-1" d="M215.25,175.78h1.2l.12,1.44h.06A7.6,7.6,0,0,1,218.2,176a3.36,3.36,0,0,1,1.69-.44,2.63,2.63,0,0,1,2.24,1,4.65,4.65,0,0,1,.72,2.84v6.17H221.4v-6a3.62,3.62,0,0,0-.45-2,1.67,1.67,0,0,0-1.47-.64,2.58,2.58,0,0,0-1.34.37,7.92,7.92,0,0,0-1.44,1.19v7.11h-1.44Z"/><path class="cls-1" d="M160.14,208.69q2.26-2.28,3.51-3.67a15.64,15.64,0,0,0,1.91-2.55,4.4,4.4,0,0,0,.67-2.18,2.66,2.66,0,0,0-.64-1.86,2.43,2.43,0,0,0-1.88-.7,2.86,2.86,0,0,0-1.47.42,5.12,5.12,0,0,0-1.31,1.14l-.86-.84a6.81,6.81,0,0,1,1.76-1.42,4.25,4.25,0,0,1,2.06-.5,3.76,3.76,0,0,1,2.77,1,3.62,3.62,0,0,1,1,2.7,5.06,5.06,0,0,1-.65,2.38,13.87,13.87,0,0,1-1.71,2.47q-1.06,1.24-3,3.31l.48,0q1.12-.08,1.66-.08h3.87v1.26h-8.16Z"/><path class="cls-1" d="M170.34,209.46a1.15,1.15,0,0,1-.32-.83,1.17,1.17,0,0,1,.32-.85,1.09,1.09,0,0,1,1.56,0,1.17,1.17,0,0,1,.32.85,1.15,1.15,0,0,1-.32.83,1.09,1.09,0,0,1-1.56,0Z"/><path class="cls-1" d="M177,196.38h1.54L180,203.7l.8,4.27h.08q.3-1.42.94-4.27l1.9-7.31h1.36L187,203.7q.24,1.08.38,1.62L188,208h.08l.22-1.18q.34-1.9.56-3.09l1.44-7.31h1.44l-2.79,13.17h-1.76l-2.1-8.2c-.05-.25-.1-.48-.15-.68s-.08-.37-.11-.52q-.16-.72-.38-1.78h-.08l-.68,3-2,8.2h-1.74Z"/><path class="cls-1" d="M193.44,197.46a1,1,0,0,1-.28-.74.94.94,0,0,1,.28-.71,1.1,1.1,0,0,1,1.44,0,.94.94,0,0,1,.28.71,1,1,0,0,1-.28.74,1.07,1.07,0,0,1-1.44,0Zm0,2.36h1.44v9.72h-1.44Z"/><path class="cls-1" d="M198.65,209a3.83,3.83,0,0,1-.62-2.34V201h-1.46v-1.1l1.52-.1.18-2.75h1.22v2.75h2.67V201H199.5v5.63a2.45,2.45,0,0,0,.35,1.44,1.38,1.38,0,0,0,1.19.48,3.44,3.44,0,0,0,1.12-.26l.3,1.1a5.85,5.85,0,0,1-1.74.36A2.42,2.42,0,0,1,198.65,209Z"/><path class="cls-1" d="M203.9,195.24h1.44v4l0,2a7.43,7.43,0,0,1,1.56-1.23,3.36,3.36,0,0,1,1.68-.43,2.63,2.63,0,0,1,2.24,1,4.65,4.65,0,0,1,.72,2.84v6.17h-1.46v-6a3.62,3.62,0,0,0-.45-2,1.67,1.67,0,0,0-1.47-.64,2.58,2.58,0,0,0-1.34.37,7.92,7.92,0,0,0-1.44,1.19v7.11H203.9Z"/><path class="cls-1" d="M219.42,198.17v1.66h2.1V201h-2.1v8.52H218V201h-1.32v-1.1l1.32-.1v-1.68a3.51,3.51,0,0,1,.69-2.32,2.53,2.53,0,0,1,2.05-.82,4.1,4.1,0,0,1,1.56.32l-.32,1.12a2.83,2.83,0,0,0-1.12-.24Q219.42,196.2,219.42,198.17Zm4.39,11.11a2.51,2.51,0,0,1-.38-1.51V195.24h1.44v12.65a.83.83,0,0,0,.13.51.4.4,0,0,0,.33.17,1.85,1.85,0,0,0,.36,0l.2,1.12a2.55,2.55,0,0,1-.88.14A1.4,1.4,0,0,1,223.8,209.28Z"/><path class="cls-1" d="M228.09,209.07a2.58,2.58,0,0,1-.8-2,2.68,2.68,0,0,1,1.44-2.44,12,12,0,0,1,4.61-1.19,3.41,3.41,0,0,0-.47-1.87,1.77,1.77,0,0,0-1.61-.73,5.31,5.31,0,0,0-2.95,1.06l-.58-1a6.79,6.79,0,0,1,3.77-1.28,2.93,2.93,0,0,1,2.49,1.05,4.68,4.68,0,0,1,.8,2.9v6h-1.2l-.12-1.18h-.06a5.25,5.25,0,0,1-3.27,1.42A2.94,2.94,0,0,1,228.09,209.07Zm3.8-.79a6.67,6.67,0,0,0,1.45-1V204.4a9.78,9.78,0,0,0-3.56.92,1.86,1.86,0,0,0-1.05,1.64,1.5,1.5,0,0,0,.5,1.23,2,2,0,0,0,1.28.41A3.08,3.08,0,0,0,231.89,208.28Z"/><path class="cls-1" d="M237.8,213.38a2.18,2.18,0,0,1-1.09-1.92,2.21,2.21,0,0,1,.37-1.2,3.64,3.64,0,0,1,1.05-1v-.08a1.9,1.9,0,0,1-.62-.64,1.8,1.8,0,0,1-.24-.94,1.84,1.84,0,0,1,.31-1,2.76,2.76,0,0,1,.75-.77v-.08a3.49,3.49,0,0,1-.88-1.1,3.16,3.16,0,0,1-.36-1.5,3.43,3.43,0,0,1,.48-1.81,3.28,3.28,0,0,1,1.3-1.22,3.82,3.82,0,0,1,1.8-.43,4,4,0,0,1,1.34.24h3.37V201h-2.06a2.75,2.75,0,0,1,.62.92,3,3,0,0,1,.24,1.18,3.4,3.4,0,0,1-.46,1.77,3.15,3.15,0,0,1-1.26,1.19,3.78,3.78,0,0,1-1.78.42,3.27,3.27,0,0,1-1.48-.34,2.24,2.24,0,0,0-.49.53,1.24,1.24,0,0,0-.17.67,1,1,0,0,0,.39.81,2.3,2.3,0,0,0,1.33.29h1.94a4.53,4.53,0,0,1,2.53.56,2,2,0,0,1,.82,1.74,2.64,2.64,0,0,1-.6,1.65,4.12,4.12,0,0,1-1.7,1.23,6.5,6.5,0,0,1-2.52.46A5.34,5.34,0,0,1,237.8,213.38Zm4.77-.63a2.72,2.72,0,0,0,1.13-.78,1.61,1.61,0,0,0,.4-1,1,1,0,0,0-.5-1,3.12,3.12,0,0,0-1.52-.29H240.3a5,5,0,0,1-1.24-.16,2.12,2.12,0,0,0-1.06,1.74,1.47,1.47,0,0,0,.78,1.3,4.08,4.08,0,0,0,2.14.48A4.46,4.46,0,0,0,242.57,212.74Zm-.36-8a2.71,2.71,0,0,0,0-3.47,2,2,0,0,0-1.54-.65,2.08,2.08,0,0,0-1.55.65,2.39,2.39,0,0,0-.63,1.73,2.43,2.43,0,0,0,.63,1.73,2,2,0,0,0,1.55.67A2,2,0,0,0,242.21,204.79Z"/><path class="cls-1" d="M247.53,209.42a6,6,0,0,1-1.66-1l.74-1a6.35,6.35,0,0,0,1.4.88,3.73,3.73,0,0,0,1.52.3,2.17,2.17,0,0,0,1.48-.46,1.48,1.48,0,0,0,.52-1.16,1.31,1.31,0,0,0-.59-1.12,6.9,6.9,0,0,0-1.67-.8,8.34,8.34,0,0,1-2.17-1.09,2,2,0,0,1-.78-1.69,2.47,2.47,0,0,1,.89-2,3.57,3.57,0,0,1,2.42-.77,4.27,4.27,0,0,1,1.58.3,5.27,5.27,0,0,1,1.36.78l-.7.94a5.72,5.72,0,0,0-1.1-.64,2.9,2.9,0,0,0-1.14-.22,2,2,0,0,0-1.4.43,1.36,1.36,0,0,0-.48,1.05,1.09,1.09,0,0,0,.29.76,2.13,2.13,0,0,0,.71.51q.42.19,1.18.49a15.1,15.1,0,0,1,1.6.68,3,3,0,0,1,1,.85,2.27,2.27,0,0,1,.42,1.41,2.64,2.64,0,0,1-.41,1.43,2.83,2.83,0,0,1-1.2,1,4.29,4.29,0,0,1-1.87.38A5.27,5.27,0,0,1,247.53,209.42Z"/><path class="cls-1" d="M159.88,232l.74-1a5.86,5.86,0,0,0,1.49,1.13,4,4,0,0,0,1.85.41,2.89,2.89,0,0,0,2-.67,2.27,2.27,0,0,0,.76-1.79q0-2.65-4.19-2.65v-1.14a4.69,4.69,0,0,0,2.85-.68,2.17,2.17,0,0,0,.88-1.8,2,2,0,0,0-.62-1.53,2.39,2.39,0,0,0-1.68-.57,3.79,3.79,0,0,0-2.79,1.32l-.8-.94a5.22,5.22,0,0,1,3.63-1.58,4.14,4.14,0,0,1,2.71.85,3.17,3.17,0,0,1,.41,4.25,3.9,3.9,0,0,1-1.73,1.17v.08a3.84,3.84,0,0,1,2,1.14,3,3,0,0,1,.79,2.12,3.42,3.42,0,0,1-.55,1.93,3.56,3.56,0,0,1-1.49,1.27,4.91,4.91,0,0,1-2.1.44A5.39,5.39,0,0,1,159.88,232Z"/><path class="cls-1" d="M170.84,233.51a1.15,1.15,0,0,1-.32-.83,1.17,1.17,0,0,1,.32-.85,1.09,1.09,0,0,1,1.56,0,1.17,1.17,0,0,1,.32.85,1.15,1.15,0,0,1-.32.83,1.09,1.09,0,0,1-1.56,0Z"/><path class="cls-1" d="M181.78,233a5.58,5.58,0,0,1-2-2.4,8.67,8.67,0,0,1-.71-3.63,8.47,8.47,0,0,1,.71-3.6,5.47,5.47,0,0,1,2-2.35,5.51,5.51,0,0,1,5.79,0,5.48,5.48,0,0,1,2,2.35,8.48,8.48,0,0,1,.71,3.6,8.69,8.69,0,0,1-.71,3.63,5.58,5.58,0,0,1-2,2.4,5.4,5.4,0,0,1-5.79,0Zm5-1.15a4.43,4.43,0,0,0,1.41-1.94,7.88,7.88,0,0,0,.5-2.94,7.66,7.66,0,0,0-.5-2.9,4.3,4.3,0,0,0-1.41-1.9,3.7,3.7,0,0,0-4.25,0,4.3,4.3,0,0,0-1.41,1.9,7.66,7.66,0,0,0-.5,2.9,8,8,0,0,0,.5,2.95,4.33,4.33,0,0,0,1.42,1.94,3.48,3.48,0,0,0,2.12.68A3.4,3.4,0,0,0,186.8,231.84Z"/><path class="cls-1" d="M193,223.88h1.2l.12,1.78h.06a4.4,4.4,0,0,1,1.22-1.48,2.53,2.53,0,0,1,1.54-.54,2.31,2.31,0,0,1,1,.2l-.28,1.28A3.2,3.2,0,0,0,197,225a2.11,2.11,0,0,0-1.35.56,4.37,4.37,0,0,0-1.15,1.74v6.33H193Z"/><path class="cls-1" d="M199.84,221.51a1,1,0,0,1-.28-.74.94.94,0,0,1,.28-.71,1.1,1.1,0,0,1,1.44,0,.94.94,0,0,1,.28.71,1,1,0,0,1-.28.74,1.07,1.07,0,0,1-1.44,0Zm0,2.36h1.44v9.72h-1.44Z"/><path class="cls-1" d="M205,237.42a2.18,2.18,0,0,1-1.09-1.92,2.21,2.21,0,0,1,.37-1.2,3.64,3.64,0,0,1,1.05-1v-.08a1.9,1.9,0,0,1-.62-.64,1.8,1.8,0,0,1-.24-.94,1.84,1.84,0,0,1,.31-1,2.76,2.76,0,0,1,.75-.77v-.08a3.49,3.49,0,0,1-.88-1.1,3.16,3.16,0,0,1-.36-1.5,3.43,3.43,0,0,1,.48-1.81,3.28,3.28,0,0,1,1.3-1.22,3.82,3.82,0,0,1,1.8-.43,4,4,0,0,1,1.34.24h3.37V225h-2.06a2.75,2.75,0,0,1,.62.92,3,3,0,0,1,.24,1.18,3.4,3.4,0,0,1-.46,1.77,3.15,3.15,0,0,1-1.26,1.19,3.78,3.78,0,0,1-1.78.42,3.27,3.27,0,0,1-1.48-.34,2.24,2.24,0,0,0-.49.53,1.24,1.24,0,0,0-.17.67,1,1,0,0,0,.39.81,2.3,2.3,0,0,0,1.33.29h1.94a4.53,4.53,0,0,1,2.53.56,2,2,0,0,1,.82,1.74,2.64,2.64,0,0,1-.6,1.65,4.12,4.12,0,0,1-1.7,1.23,6.5,6.5,0,0,1-2.52.46A5.34,5.34,0,0,1,205,237.42Zm4.77-.63a2.72,2.72,0,0,0,1.13-.78,1.61,1.61,0,0,0,.4-1,1,1,0,0,0-.5-1,3.12,3.12,0,0,0-1.52-.29h-1.78a5,5,0,0,1-1.24-.16,2.12,2.12,0,0,0-1.06,1.74,1.47,1.47,0,0,0,.78,1.3,4.08,4.08,0,0,0,2.14.48A4.46,4.46,0,0,0,209.77,236.79Zm-.36-8a2.71,2.71,0,0,0,0-3.47,2,2,0,0,0-1.54-.65,2.08,2.08,0,0,0-1.55.65,2.39,2.39,0,0,0-.63,1.73,2.43,2.43,0,0,0,.63,1.73,2,2,0,0,0,1.55.67A2,2,0,0,0,209.4,228.84Z"/><path class="cls-1" d="M214.71,221.51a1,1,0,0,1-.28-.74.94.94,0,0,1,.28-.71,1.1,1.1,0,0,1,1.44,0,.94.94,0,0,1,.28.71,1,1,0,0,1-.28.74,1.07,1.07,0,0,1-1.44,0Zm0,2.36h1.44v9.72h-1.44Z"/><path class="cls-1" d="M219.54,223.88h1.2l.12,1.44h.06a7.6,7.6,0,0,1,1.57-1.24,3.36,3.36,0,0,1,1.69-.44,2.63,2.63,0,0,1,2.24,1,4.65,4.65,0,0,1,.72,2.84v6.17h-1.46v-6a3.62,3.62,0,0,0-.45-2,1.67,1.67,0,0,0-1.47-.64,2.58,2.58,0,0,0-1.34.37,7.92,7.92,0,0,0-1.44,1.19v7.11h-1.44Z"/><path class="cls-1" d="M230.58,233.11a2.58,2.58,0,0,1-.8-2,2.68,2.68,0,0,1,1.44-2.44,12,12,0,0,1,4.61-1.19,3.41,3.41,0,0,0-.47-1.87,1.77,1.77,0,0,0-1.61-.73,5.31,5.31,0,0,0-2.95,1.06l-.58-1a6.79,6.79,0,0,1,3.77-1.28,2.93,2.93,0,0,1,2.49,1.05,4.68,4.68,0,0,1,.8,2.9v6h-1.2l-.12-1.18h-.06a5.25,5.25,0,0,1-3.27,1.42A2.94,2.94,0,0,1,230.58,233.11Zm3.8-.79a6.67,6.67,0,0,0,1.45-1v-2.85a9.78,9.78,0,0,0-3.56.92,1.86,1.86,0,0,0-1.05,1.64,1.5,1.5,0,0,0,.5,1.23,2,2,0,0,0,1.28.41A3.08,3.08,0,0,0,234.37,232.32Z"/><path class="cls-1" d="M240.84,233.33a2.51,2.51,0,0,1-.38-1.51V219.29h1.44v12.65a.83.83,0,0,0,.13.51.4.4,0,0,0,.33.17,1.85,1.85,0,0,0,.36,0l.2,1.12a2.55,2.55,0,0,1-.88.14A1.4,1.4,0,0,1,240.84,233.33Z"/><path class="cls-1" d="M249.83,232.49a5.86,5.86,0,0,1-1.07-3.75,5.93,5.93,0,0,1,.58-2.69,4.45,4.45,0,0,1,1.55-1.79,3.77,3.77,0,0,1,2.09-.63,3.37,3.37,0,0,1,1.4.28,6.81,6.81,0,0,1,1.36.86l-.06-1.68v-3.81h1.44V233.6h-1.2l-.12-1.18h-.06a5.19,5.19,0,0,1-1.39,1,3.73,3.73,0,0,1-4.53-1Zm4.57-.24a5.27,5.27,0,0,0,1.29-1v-5.27a4.63,4.63,0,0,0-1.24-.81,3.2,3.2,0,0,0-1.24-.25,2.44,2.44,0,0,0-1.49.5,3.4,3.4,0,0,0-1.06,1.38,4.84,4.84,0,0,0-.39,2,4.78,4.78,0,0,0,.73,2.83,2.4,2.4,0,0,0,2.07,1A2.76,2.76,0,0,0,254.39,232.25Z"/><path class="cls-1" d="M260.7,233.11a2.58,2.58,0,0,1-.8-2,2.68,2.68,0,0,1,1.44-2.44,12,12,0,0,1,4.61-1.19,3.41,3.41,0,0,0-.47-1.87,1.77,1.77,0,0,0-1.61-.73,5.31,5.31,0,0,0-2.95,1.06l-.58-1a6.79,6.79,0,0,1,3.77-1.28,2.93,2.93,0,0,1,2.49,1.05,4.68,4.68,0,0,1,.8,2.9v6h-1.2l-.12-1.18H266a5.25,5.25,0,0,1-3.27,1.42A2.94,2.94,0,0,1,260.7,233.11Zm3.8-.79a6.67,6.67,0,0,0,1.45-1v-2.85a9.78,9.78,0,0,0-3.56.92,1.86,1.86,0,0,0-1.05,1.64,1.5,1.5,0,0,0,.5,1.23,2,2,0,0,0,1.28.41A3.08,3.08,0,0,0,264.49,232.32Z"/><path class="cls-1" d="M271.46,233a3.83,3.83,0,0,1-.62-2.34v-5.59h-1.46V224l1.52-.1.18-2.75h1.22v2.75H275v1.2H272.3v5.63a2.45,2.45,0,0,0,.35,1.44,1.38,1.38,0,0,0,1.19.48,3.44,3.44,0,0,0,1.12-.26l.3,1.1a5.85,5.85,0,0,1-1.74.36A2.42,2.42,0,0,1,271.46,233Z"/><path class="cls-1" d="M277.37,233.11a2.58,2.58,0,0,1-.8-2,2.68,2.68,0,0,1,1.44-2.44,12,12,0,0,1,4.61-1.19,3.41,3.41,0,0,0-.47-1.87,1.77,1.77,0,0,0-1.61-.73,5.31,5.31,0,0,0-2.95,1.06l-.58-1a6.79,6.79,0,0,1,3.77-1.28,2.93,2.93,0,0,1,2.49,1.05,4.68,4.68,0,0,1,.8,2.9v6h-1.2l-.12-1.18h-.06a5.25,5.25,0,0,1-3.27,1.42A2.94,2.94,0,0,1,277.37,233.11Zm3.8-.79a6.67,6.67,0,0,0,1.45-1v-2.85a9.78,9.78,0,0,0-3.56.92A1.86,1.86,0,0,0,278,231a1.5,1.5,0,0,0,.5,1.23,2,2,0,0,0,1.28.41A3.08,3.08,0,0,0,281.17,232.32Z"/><polygon class="cls-4" points="11.67 17.59 11.67 55.62 11.67 60.24 11.67 60.34 83.21 72.85 145.23 60.24 147.07 60.24 147.07 60.15 147.07 55.62 147.07 17.59 11.67 17.59"/><rect class="cls-5" x="147.07" y="69.97" width="462.34" height="42.65"/><path class="cls-1" d="M36,47.71A7,7,0,0,1,34.65,43V35.89h2.75v7.39A4.72,4.72,0,0,0,38,46a2.07,2.07,0,0,0,1.78.82A2.14,2.14,0,0,0,41.6,46a4.6,4.6,0,0,0,.62-2.73V35.89h2.64V43a7.09,7.09,0,0,1-1.29,4.69,4.74,4.74,0,0,1-3.8,1.5A4.8,4.8,0,0,1,36,47.71Z"/><path class="cls-1" d="M48.63,48.84a6.21,6.21,0,0,1-1.79-1l1.24-1.72a5.9,5.9,0,0,0,1.33.8,3.36,3.36,0,0,0,1.29.26,1.72,1.72,0,0,0,1-.25.83.83,0,0,0,.34-.71.73.73,0,0,0-.27-.56A2.79,2.79,0,0,0,51,45.2l-1-.41a6.31,6.31,0,0,1-1.93-1.13,2.26,2.26,0,0,1-.75-1.77,2.75,2.75,0,0,1,1-2.21,4.09,4.09,0,0,1,2.71-.85,5.44,5.44,0,0,1,3.43,1.24L53.27,41.7a3.8,3.8,0,0,0-2.12-.84,1.51,1.51,0,0,0-.93.24.77.77,0,0,0-.31.64.75.75,0,0,0,.4.65,4.5,4.5,0,0,0,.92.43l.68.24a6.15,6.15,0,0,1,2,1.11,2.38,2.38,0,0,1,.73,1.87,2.86,2.86,0,0,1-.47,1.61,3.24,3.24,0,0,1-1.37,1.13,5.09,5.09,0,0,1-2.16.42A5.76,5.76,0,0,1,48.63,48.84Z"/><path class="cls-1" d="M64.65,44.81H58.51a2.58,2.58,0,0,0,1,1.74,3,3,0,0,0,1.79.56,4.4,4.4,0,0,0,2.21-.66l.9,1.66a6,6,0,0,1-1.65.81,5.94,5.94,0,0,1-1.81.29,5.18,5.18,0,0,1-2.54-.62,4.45,4.45,0,0,1-1.78-1.8,6.15,6.15,0,0,1,0-5.51,4.75,4.75,0,0,1,1.71-1.82,4.31,4.31,0,0,1,2.26-.64,3.8,3.8,0,0,1,3.11,1.31,6.11,6.11,0,0,1,1,4.68ZM62.42,43A2.36,2.36,0,0,0,62,41.47a1.62,1.62,0,0,0-1.34-.55,1.91,1.91,0,0,0-1.31.51A2.69,2.69,0,0,0,58.56,43Z"/><path class="cls-1" d="M66.85,39.06h2.22l.2,1.74h.08a4.08,4.08,0,0,1,1.27-1.47,2.7,2.7,0,0,1,1.53-.51,2.94,2.94,0,0,1,1.16.2l-.46,2.36-.36-.09a3,3,0,0,0-.68-.07,2,2,0,0,0-1.24.46,3.38,3.38,0,0,0-1,1.44V49H66.85Z"/><path class="cls-1" d="M78.93,37.1a1.5,1.5,0,0,1,0-2.1,1.71,1.71,0,0,1,2.22,0,1.5,1.5,0,0,1,0,2.1,1.71,1.71,0,0,1-2.22,0Zm-.25,2H81.4V49H78.67Z"/><path class="cls-1" d="M84.13,39.06h2.22l.2,1.28h.08a6.63,6.63,0,0,1,1.49-1.11,3.6,3.6,0,0,1,1.71-.41,2.67,2.67,0,0,1,2.31,1,5,5,0,0,1,.75,3V49H90.16V43.14a2.81,2.81,0,0,0-.31-1.54,1.15,1.15,0,0,0-1-.44,2,2,0,0,0-1,.24,5.43,5.43,0,0,0-1,.8V49H84.13Z"/><path class="cls-1" d="M95.51,39.06h2.22l.2,1H98a5.31,5.31,0,0,1,1.37-.9,3.6,3.6,0,0,1,1.49-.34,3.39,3.39,0,0,1,2.85,1.36,5.93,5.93,0,0,1,1,3.69,6.55,6.55,0,0,1-.58,2.85,4.48,4.48,0,0,1-1.54,1.86,3.65,3.65,0,0,1-2.06.64,3.57,3.57,0,0,1-2.42-1.06l.08,1.6v3H95.51Zm5.89,7.13a3.94,3.94,0,0,0,.56-2.3q0-2.83-1.86-2.83a2.68,2.68,0,0,0-1.86,1v4.25A2.57,2.57,0,0,0,100,47,1.71,1.71,0,0,0,101.4,46.19Z"/><path class="cls-1" d="M107.58,48.18a5,5,0,0,1-.75-3V39.06h2.73v5.83a2.74,2.74,0,0,0,.32,1.53,1.17,1.17,0,0,0,1,.45,1.76,1.76,0,0,0,1-.27,4.14,4.14,0,0,0,.91-.91V39.06h2.73V49H113.3l-.2-1.4H113a5.39,5.39,0,0,1-1.42,1.22,3.39,3.39,0,0,1-1.7.42A2.67,2.67,0,0,1,107.58,48.18Z"/><path class="cls-1" d="M119.43,48.22a4.31,4.31,0,0,1-.8-2.78V41.22h-1.38v-2l1.52-.12.32-2.65h2.26v2.65h2.42v2.16h-2.42v4.21q0,1.62,1.32,1.62a3,3,0,0,0,1-.2l.44,2a6.76,6.76,0,0,1-2.14.36A3.06,3.06,0,0,1,119.43,48.22Z"/><polygon class="cls-4" points="83.21 77.85 38.17 69.97 11.67 69.97 11.67 108 11.67 112.62 11.67 112.72 83.21 125.23 145.23 112.62 147.07 112.62 147.07 112.53 147.07 108 147.07 69.97 121.94 69.97 83.21 77.85"/><path class="cls-1" d="M21,88.52H24.6a6.7,6.7,0,0,1,4.8,1.62A6.4,6.4,0,0,1,31.11,95a6.62,6.62,0,0,1-1.69,4.92,6.34,6.34,0,0,1-4.66,1.67H21Zm3.47,10.86q3.85,0,3.85-4.37a4.52,4.52,0,0,0-1-3.27,3.85,3.85,0,0,0-2.86-1h-.72v8.64Z"/><path class="cls-1" d="M33.74,101a2.94,2.94,0,0,1-.81-2.12,2.77,2.77,0,0,1,1.34-2.45,10.22,10.22,0,0,1,4.31-1.19,1.47,1.47,0,0,0-1.64-1.6,3.57,3.57,0,0,0-1.26.24,9.52,9.52,0,0,0-1.4.68l-1-1.8a7.88,7.88,0,0,1,4.17-1.3,3.65,3.65,0,0,1,2.89,1.11,4.88,4.88,0,0,1,1,3.32v5.73H39.08l-.2-1h-.06a4.54,4.54,0,0,1-2.95,1.28A2.83,2.83,0,0,1,33.74,101Zm3.95-1.51a4.56,4.56,0,0,0,.89-.69v-1.9a6.18,6.18,0,0,0-2.33.66,1.28,1.28,0,0,0-.7,1.1,1,1,0,0,0,.32.79,1.36,1.36,0,0,0,.9.27A1.83,1.83,0,0,0,37.69,99.49Z"/><path class="cls-1" d="M45.1,100.85a4.31,4.31,0,0,1-.8-2.78V93.85H42.91v-2l1.52-.12L44.76,89H47v2.65h2.42v2.16H47v4.21q0,1.62,1.32,1.62a3,3,0,0,0,1-.2l.44,2a6.76,6.76,0,0,1-2.14.36A3.06,3.06,0,0,1,45.1,100.85Z"/><path class="cls-1" d="M51.78,101A2.94,2.94,0,0,1,51,98.88a2.77,2.77,0,0,1,1.34-2.45,10.22,10.22,0,0,1,4.31-1.19A1.47,1.47,0,0,0,55,93.63a3.57,3.57,0,0,0-1.26.24,9.52,9.52,0,0,0-1.4.68l-1-1.8a7.88,7.88,0,0,1,4.17-1.3,3.65,3.65,0,0,1,2.89,1.11,4.88,4.88,0,0,1,1,3.32v5.73H57.12l-.2-1h-.06a4.54,4.54,0,0,1-2.95,1.28A2.83,2.83,0,0,1,51.78,101Zm3.95-1.51a4.56,4.56,0,0,0,.89-.69v-1.9a6.18,6.18,0,0,0-2.33.66,1.28,1.28,0,0,0-.7,1.1,1,1,0,0,0,.32.79,1.36,1.36,0,0,0,.9.27A1.83,1.83,0,0,0,55.73,99.49Z"/><path class="cls-1" d="M67.72,101.22A4.4,4.4,0,0,1,66,99.43a5.77,5.77,0,0,1-.63-2.78A5.42,5.42,0,0,1,66,93.87a4.67,4.67,0,0,1,1.85-1.8,5.31,5.31,0,0,1,2.54-.62,4.39,4.39,0,0,1,2.91,1.08L72,94.29a3.06,3.06,0,0,0-.72-.47,1.77,1.77,0,0,0-.72-.15,2.19,2.19,0,0,0-1.77.81,3.87,3.87,0,0,0,0,4.33,2.07,2.07,0,0,0,1.69.81,3.12,3.12,0,0,0,1.88-.76l1.08,1.78a4.85,4.85,0,0,1-1.55.9,5.12,5.12,0,0,1-1.71.3A5,5,0,0,1,67.72,101.22Z"/><path class="cls-1" d="M75.9,101a3.89,3.89,0,0,1-.6-2.32V87.52H78v11.3a1,1,0,0,0,.16.61.47.47,0,0,0,.36.19,1.48,1.48,0,0,0,.36,0l.34,2a4,4,0,0,1-1.4.22A2.25,2.25,0,0,1,75.9,101Z"/><path class="cls-1" d="M89,97.43H82.89a2.58,2.58,0,0,0,1,1.74,3,3,0,0,0,1.79.56,4.4,4.4,0,0,0,2.21-.66l.9,1.66a6,6,0,0,1-1.65.81,5.94,5.94,0,0,1-1.81.29,5.18,5.18,0,0,1-2.54-.62A4.45,4.45,0,0,1,81,99.42a6.15,6.15,0,0,1,0-5.51,4.75,4.75,0,0,1,1.71-1.82A4.31,4.31,0,0,1,85,91.44a3.8,3.8,0,0,1,3.11,1.31,6.11,6.11,0,0,1,1,4.68ZM86.8,95.61a2.36,2.36,0,0,0-.44-1.51A1.62,1.62,0,0,0,85,93.55a1.91,1.91,0,0,0-1.31.51,2.69,2.69,0,0,0-.77,1.55Z"/><path class="cls-1" d="M91.56,101a2.94,2.94,0,0,1-.81-2.12,2.77,2.77,0,0,1,1.34-2.45,10.22,10.22,0,0,1,4.31-1.19,1.47,1.47,0,0,0-1.64-1.6,3.57,3.57,0,0,0-1.26.24,9.52,9.52,0,0,0-1.4.68l-1-1.8a7.88,7.88,0,0,1,4.17-1.3,3.65,3.65,0,0,1,2.89,1.11,4.88,4.88,0,0,1,1,3.32v5.73H96.9l-.2-1h-.06a4.54,4.54,0,0,1-2.95,1.28A2.83,2.83,0,0,1,91.56,101Zm3.95-1.51a4.56,4.56,0,0,0,.89-.69v-1.9a6.18,6.18,0,0,0-2.33.66,1.28,1.28,0,0,0-.7,1.1,1,1,0,0,0,.32.79,1.36,1.36,0,0,0,.9.27A1.83,1.83,0,0,0,95.51,99.49Z"/><path class="cls-1" d="M101.73,91.68H104l.2,1.28h.08a6.63,6.63,0,0,1,1.49-1.11,3.6,3.6,0,0,1,1.71-.41,2.67,2.67,0,0,1,2.31,1,5,5,0,0,1,.75,3v6.17h-2.75V95.77a2.81,2.81,0,0,0-.31-1.54,1.15,1.15,0,0,0-1-.44,2,2,0,0,0-1,.24,5.43,5.43,0,0,0-1,.8v6.77h-2.73Z"/><path class="cls-1" d="M113.36,89.73a1.5,1.5,0,0,1,0-2.1,1.71,1.71,0,0,1,2.22,0,1.5,1.5,0,0,1,0,2.1,1.71,1.71,0,0,1-2.22,0Zm-.25,2h2.73v9.92h-2.73Z"/><path class="cls-1" d="M118.56,91.68h2.22L121,93h.08a6.63,6.63,0,0,1,1.49-1.11,3.6,3.6,0,0,1,1.71-.41,2.67,2.67,0,0,1,2.31,1,5,5,0,0,1,.75,3v6.17h-2.75V95.77a2.81,2.81,0,0,0-.31-1.54,1.15,1.15,0,0,0-1-.44,2,2,0,0,0-1,.24,5.43,5.43,0,0,0-1,.8v6.77h-2.73Z"/><path class="cls-1" d="M130.45,105.23a2,2,0,0,1-1.15-1.88,2.35,2.35,0,0,1,1.42-2v-.08a1.88,1.88,0,0,1-.9-1.68,1.92,1.92,0,0,1,.31-1,2.66,2.66,0,0,1,.79-.82v-.08A3.14,3.14,0,0,1,129.6,95a3.35,3.35,0,0,1,.55-1.93,3.5,3.5,0,0,1,1.47-1.23,4.77,4.77,0,0,1,2-.42,5,5,0,0,1,1.52.24h3.59v2h-1.66a2.07,2.07,0,0,1,.3.63,2.68,2.68,0,0,1,.12.79,3,3,0,0,1-1.08,2.49,4.34,4.34,0,0,1-2.79.86,4,4,0,0,1-1.24-.2,1.52,1.52,0,0,0-.3.35.89.89,0,0,0-.1.45.63.63,0,0,0,.35.58,2.5,2.5,0,0,0,1.17.2h1.66a5.23,5.23,0,0,1,2.79.6,2.09,2.09,0,0,1,.94,1.9,2.78,2.78,0,0,1-.67,1.81,4.33,4.33,0,0,1-1.9,1.26,8.35,8.35,0,0,1-2.87.45A6.13,6.13,0,0,1,130.45,105.23Zm5.14-1.47a1.12,1.12,0,0,0,.68-1,.67.67,0,0,0-.38-.66,3,3,0,0,0-1.2-.18h-1.14a5.1,5.1,0,0,1-1.36-.14,1.41,1.41,0,0,0-.62,1.08,1,1,0,0,0,.62.92,3.7,3.7,0,0,0,1.68.32A3.42,3.42,0,0,0,135.59,103.76Zm-.89-7.42a1.89,1.89,0,0,0,.41-1.3,1.83,1.83,0,0,0-.41-1.27,1.38,1.38,0,0,0-1.07-.45,1.35,1.35,0,0,0-1.06.45,1.85,1.85,0,0,0-.4,1.27,1.9,1.9,0,0,0,.41,1.29,1.33,1.33,0,0,0,1.05.47A1.37,1.37,0,0,0,134.7,96.33Z"/><path class="cls-1" d="M160.92,84.52h3.63a6.7,6.7,0,0,1,4.8,1.62A6.4,6.4,0,0,1,171.06,91a6.62,6.62,0,0,1-1.69,4.92,6.34,6.34,0,0,1-4.66,1.67h-3.79Zm3.47,10.86q3.85,0,3.85-4.37a4.52,4.52,0,0,0-1-3.27,3.85,3.85,0,0,0-2.86-1h-.72v8.64Z"/><path class="cls-1" d="M173.69,97a2.94,2.94,0,0,1-.81-2.12,2.77,2.77,0,0,1,1.34-2.45,10.22,10.22,0,0,1,4.31-1.19,1.47,1.47,0,0,0-1.64-1.6,3.57,3.57,0,0,0-1.26.24,9.52,9.52,0,0,0-1.4.68l-1-1.8a7.88,7.88,0,0,1,4.17-1.3,3.65,3.65,0,0,1,2.89,1.11,4.88,4.88,0,0,1,1,3.32V97.6H179l-.2-1h-.06a4.54,4.54,0,0,1-2.95,1.28A2.83,2.83,0,0,1,173.69,97Zm3.95-1.51a4.56,4.56,0,0,0,.89-.69v-1.9a6.18,6.18,0,0,0-2.33.66,1.28,1.28,0,0,0-.7,1.1,1,1,0,0,0,.32.79,1.36,1.36,0,0,0,.9.27A1.83,1.83,0,0,0,177.64,95.49Z"/><path class="cls-1" d="M185,96.85a4.31,4.31,0,0,1-.8-2.78V89.85h-1.38v-2l1.52-.12.32-2.65H187v2.65h2.42v2.16H187v4.21q0,1.62,1.32,1.62a3,3,0,0,0,1-.2l.44,2a6.76,6.76,0,0,1-2.14.36A3.06,3.06,0,0,1,185,96.85Z"/><path class="cls-1" d="M191.73,97a2.94,2.94,0,0,1-.81-2.12,2.77,2.77,0,0,1,1.34-2.45,10.22,10.22,0,0,1,4.31-1.19,1.47,1.47,0,0,0-1.64-1.6,3.57,3.57,0,0,0-1.26.24,9.52,9.52,0,0,0-1.4.68l-1-1.8a7.88,7.88,0,0,1,4.17-1.3,3.65,3.65,0,0,1,2.89,1.11,4.88,4.88,0,0,1,1,3.32V97.6h-2.24l-.2-1h-.06a4.54,4.54,0,0,1-2.95,1.28A2.83,2.83,0,0,1,191.73,97Zm3.95-1.51a4.56,4.56,0,0,0,.89-.69v-1.9a6.18,6.18,0,0,0-2.33.66,1.28,1.28,0,0,0-.7,1.1,1,1,0,0,0,.32.79,1.36,1.36,0,0,0,.9.27A1.83,1.83,0,0,0,195.68,95.49Z"/><path class="cls-1" d="M207.67,97.22a4.4,4.4,0,0,1-1.73-1.79,5.77,5.77,0,0,1-.63-2.78,5.42,5.42,0,0,1,.69-2.79,4.67,4.67,0,0,1,1.85-1.8,5.31,5.31,0,0,1,2.54-.62,4.39,4.39,0,0,1,2.91,1.08L212,90.29a3.06,3.06,0,0,0-.72-.47,1.77,1.77,0,0,0-.72-.15,2.19,2.19,0,0,0-1.77.81,3.87,3.87,0,0,0,0,4.33,2.07,2.07,0,0,0,1.69.81,3.12,3.12,0,0,0,1.88-.76l1.08,1.78a4.85,4.85,0,0,1-1.55.9,5.12,5.12,0,0,1-1.71.3A5,5,0,0,1,207.67,97.22Z"/><path class="cls-1" d="M215.25,83.51H218V87l-.12,1.84a6.32,6.32,0,0,1,1.44-1,3.58,3.58,0,0,1,1.66-.38,2.67,2.67,0,0,1,2.31,1,5,5,0,0,1,.75,3V97.6h-2.75V91.77a2.81,2.81,0,0,0-.31-1.54,1.15,1.15,0,0,0-1-.44,2,2,0,0,0-1,.24,5.43,5.43,0,0,0-1,.8V97.6h-2.73Z"/><path class="cls-1" d="M234.71,93.43h-6.13a2.58,2.58,0,0,0,1,1.74,3,3,0,0,0,1.79.56,4.4,4.4,0,0,0,2.21-.66l.9,1.66a6,6,0,0,1-1.65.81,5.94,5.94,0,0,1-1.81.29,5.18,5.18,0,0,1-2.54-.62,4.45,4.45,0,0,1-1.78-1.8,6.15,6.15,0,0,1,0-5.51,4.75,4.75,0,0,1,1.71-1.82,4.31,4.31,0,0,1,2.26-.64,3.8,3.8,0,0,1,3.11,1.31,6.11,6.11,0,0,1,1,4.68Zm-2.22-1.82A2.36,2.36,0,0,0,232,90.1a1.62,1.62,0,0,0-1.34-.55,1.91,1.91,0,0,0-1.31.51,2.69,2.69,0,0,0-.77,1.55Z"/><path class="cls-1" d="M238.67,97.22a4.4,4.4,0,0,1-1.73-1.79,5.77,5.77,0,0,1-.63-2.78,5.42,5.42,0,0,1,.69-2.79,4.67,4.67,0,0,1,1.85-1.8,5.31,5.31,0,0,1,2.54-.62,4.39,4.39,0,0,1,2.91,1.08L243,90.29a3.06,3.06,0,0,0-.72-.47,1.77,1.77,0,0,0-.72-.15,2.19,2.19,0,0,0-1.77.81,3.87,3.87,0,0,0,0,4.33,2.07,2.07,0,0,0,1.69.81,3.12,3.12,0,0,0,1.88-.76l1.08,1.78a4.85,4.85,0,0,1-1.55.9,5.12,5.12,0,0,1-1.71.3A5,5,0,0,1,238.67,97.22Z"/><path class="cls-1" d="M246.25,83.51h2.67v8.32H249l3.31-4.15h3l-3.45,4.07,3.73,5.85h-3l-2.33-4-1.36,1.54V97.6h-2.67Z"/><path class="cls-1" d="M257.92,97.46a6.21,6.21,0,0,1-1.79-1l1.24-1.72a5.9,5.9,0,0,0,1.33.8,3.36,3.36,0,0,0,1.29.26,1.72,1.72,0,0,0,1-.25.83.83,0,0,0,.34-.71.73.73,0,0,0-.27-.56,2.79,2.79,0,0,0-.77-.45l-1-.41a6.31,6.31,0,0,1-1.93-1.13,2.26,2.26,0,0,1-.75-1.77,2.75,2.75,0,0,1,1-2.21,4.09,4.09,0,0,1,2.71-.85,5.44,5.44,0,0,1,3.43,1.24l-1.22,1.64a3.8,3.8,0,0,0-2.12-.84,1.51,1.51,0,0,0-.93.24.77.77,0,0,0-.31.64.75.75,0,0,0,.4.65,4.5,4.5,0,0,0,.92.43l.68.24a6.15,6.15,0,0,1,2,1.11,2.38,2.38,0,0,1,.73,1.87,2.86,2.86,0,0,1-.47,1.61,3.24,3.24,0,0,1-1.37,1.13,5.09,5.09,0,0,1-2.16.42A5.76,5.76,0,0,1,257.92,97.46Z"/><path class="cls-1" d="M270.18,97a2.94,2.94,0,0,1-.81-2.12,2.77,2.77,0,0,1,1.34-2.45A10.22,10.22,0,0,1,275,91.23a1.47,1.47,0,0,0-1.64-1.6,3.57,3.57,0,0,0-1.26.24,9.52,9.52,0,0,0-1.4.68l-1-1.8a7.88,7.88,0,0,1,4.17-1.3,3.65,3.65,0,0,1,2.89,1.11,4.88,4.88,0,0,1,1,3.32V97.6h-2.24l-.2-1h-.06a4.54,4.54,0,0,1-2.95,1.28A2.83,2.83,0,0,1,270.18,97Zm3.95-1.51a4.56,4.56,0,0,0,.89-.69v-1.9a6.18,6.18,0,0,0-2.33.66,1.28,1.28,0,0,0-.7,1.1,1,1,0,0,0,.32.79,1.36,1.36,0,0,0,.9.27A1.83,1.83,0,0,0,274.13,95.49Z"/><path class="cls-1" d="M280.35,87.68h2.22l.2,1.74h.08A4.08,4.08,0,0,1,284.13,88a2.7,2.7,0,0,1,1.53-.51,2.94,2.94,0,0,1,1.16.2L286.37,90l-.36-.09a3,3,0,0,0-.68-.07,2,2,0,0,0-1.24.46,3.38,3.38,0,0,0-1,1.44V97.6h-2.73Z"/><path class="cls-1" d="M296.27,93.43h-6.13a2.58,2.58,0,0,0,1,1.74,3,3,0,0,0,1.79.56,4.4,4.4,0,0,0,2.21-.66l.9,1.66a6,6,0,0,1-1.65.81,5.94,5.94,0,0,1-1.81.29,5.18,5.18,0,0,1-2.54-.62,4.45,4.45,0,0,1-1.78-1.8,6.15,6.15,0,0,1,0-5.51,4.75,4.75,0,0,1,1.71-1.82,4.31,4.31,0,0,1,2.26-.64,3.8,3.8,0,0,1,3.11,1.31,6.11,6.11,0,0,1,1,4.68ZM294,91.61a2.36,2.36,0,0,0-.44-1.51,1.62,1.62,0,0,0-1.34-.55,1.91,1.91,0,0,0-1.31.51,2.69,2.69,0,0,0-.77,1.55Z"/><path class="cls-1" d="M302.48,87.68h2.22l.2,1H305a5.31,5.31,0,0,1,1.37-.9,3.6,3.6,0,0,1,1.49-.34,3.39,3.39,0,0,1,2.85,1.36,5.93,5.93,0,0,1,1,3.69,6.55,6.55,0,0,1-.58,2.85,4.48,4.48,0,0,1-1.54,1.86,3.65,3.65,0,0,1-2.06.64,3.57,3.57,0,0,1-2.42-1.06l.08,1.6v3h-2.73Zm5.89,7.13a3.94,3.94,0,0,0,.56-2.3q0-2.83-1.86-2.83a2.68,2.68,0,0,0-1.86,1V94.9a2.57,2.57,0,0,0,1.72.7A1.71,1.71,0,0,0,308.37,94.82Z"/><path class="cls-1" d="M313.9,87.68h2.22l.2,1.74h.08A4.08,4.08,0,0,1,317.68,88a2.7,2.7,0,0,1,1.53-.51,2.94,2.94,0,0,1,1.16.2L319.91,90l-.36-.09a3,3,0,0,0-.68-.07,2,2,0,0,0-1.24.46,3.38,3.38,0,0,0-1,1.44V97.6H313.9Z"/><path class="cls-1" d="M329.81,93.43h-6.13a2.58,2.58,0,0,0,1,1.74,3,3,0,0,0,1.79.56,4.4,4.4,0,0,0,2.21-.66l.9,1.66a6,6,0,0,1-1.65.81,5.94,5.94,0,0,1-1.81.29,5.18,5.18,0,0,1-2.54-.62,4.45,4.45,0,0,1-1.78-1.8,6.15,6.15,0,0,1,0-5.51,4.75,4.75,0,0,1,1.71-1.82,4.31,4.31,0,0,1,2.26-.64,3.8,3.8,0,0,1,3.11,1.31,6.11,6.11,0,0,1,1,4.68Zm-2.22-1.82a2.36,2.36,0,0,0-.44-1.51,1.62,1.62,0,0,0-1.34-.55,1.91,1.91,0,0,0-1.31.51,2.69,2.69,0,0,0-.77,1.55Z"/><path class="cls-1" d="M335.22,86.94v.74H337v2.16h-1.82V97.6h-2.75V89.85h-1.32v-2l1.32-.1V87a4.09,4.09,0,0,1,.85-2.71,3.29,3.29,0,0,1,2.67-1,5,5,0,0,1,1.92.36l-.5,2a2.75,2.75,0,0,0-1-.22Q335.22,85.44,335.22,86.94Z"/><path class="cls-1" d="M340.51,97.22a4.6,4.6,0,0,1-1.75-1.8,6.16,6.16,0,0,1,0-5.55,4.6,4.6,0,0,1,1.75-1.8,4.83,4.83,0,0,1,4.74,0A4.58,4.58,0,0,1,347,89.88a5.64,5.64,0,0,1,.66,2.78,5.58,5.58,0,0,1-.66,2.77,4.59,4.59,0,0,1-1.76,1.8,4.83,4.83,0,0,1-4.74,0Zm3.84-2.39a3.92,3.92,0,0,0,.52-2.17,4,4,0,0,0-.52-2.18,1.74,1.74,0,0,0-2.94,0,4,4,0,0,0-.51,2.18,4,4,0,0,0,.51,2.17,1.76,1.76,0,0,0,2.94,0Z"/><path class="cls-1" d="M349.77,87.68H352l.2,1.74h.08A4.08,4.08,0,0,1,353.55,88a2.7,2.7,0,0,1,1.53-.51,2.94,2.94,0,0,1,1.16.2L355.79,90l-.36-.09a3,3,0,0,0-.68-.07,2,2,0,0,0-1.24.46,3.38,3.38,0,0,0-1,1.44V97.6h-2.73Z"/><path class="cls-1" d="M357.59,87.68h2.22L360,89h.08a6.54,6.54,0,0,1,1.42-1.14,3.13,3.13,0,0,1,1.58-.4,3.07,3.07,0,0,1,1.7.43,2.89,2.89,0,0,1,1,1.27,7.48,7.48,0,0,1,1.5-1.25,3.07,3.07,0,0,1,1.62-.45,2.69,2.69,0,0,1,2.33,1,4.92,4.92,0,0,1,.76,2.95V97.6h-2.73V91.77a2.81,2.81,0,0,0-.31-1.53,1.14,1.14,0,0,0-1-.45,2.8,2.8,0,0,0-1.82,1V97.6h-2.73V91.77a2.81,2.81,0,0,0-.31-1.53,1.14,1.14,0,0,0-1-.45,2.8,2.8,0,0,0-1.82,1V97.6h-2.73Z"/><path class="cls-1" d="M382.78,93.43h-6.13a2.58,2.58,0,0,0,1,1.74,3,3,0,0,0,1.79.56,4.4,4.4,0,0,0,2.21-.66l.9,1.66a6,6,0,0,1-1.65.81,5.94,5.94,0,0,1-1.81.29,5.18,5.18,0,0,1-2.54-.62,4.45,4.45,0,0,1-1.78-1.8,6.15,6.15,0,0,1,0-5.51,4.75,4.75,0,0,1,1.71-1.82,4.31,4.31,0,0,1,2.26-.64,3.8,3.8,0,0,1,3.11,1.31,6.11,6.11,0,0,1,1,4.68Zm-2.22-1.82a2.36,2.36,0,0,0-.44-1.51,1.62,1.62,0,0,0-1.34-.55,1.91,1.91,0,0,0-1.31.51,2.69,2.69,0,0,0-.77,1.55Z"/><path class="cls-1" d="M385.53,96.46a6,6,0,0,1-1.09-3.81,6.16,6.16,0,0,1,.58-2.75,4.57,4.57,0,0,1,1.53-1.82,3.55,3.55,0,0,1,2-.64,3.18,3.18,0,0,1,1.34.26,4.49,4.49,0,0,1,1.14.8L391,87V83.51h2.75V97.6h-2.24l-.2-1h-.06a4.77,4.77,0,0,1-1.27.91,3.21,3.21,0,0,1-1.43.35A3.57,3.57,0,0,1,385.53,96.46Zm4.6-1.09a2.81,2.81,0,0,0,.82-.73V90.39a2.52,2.52,0,0,0-1.76-.7,1.67,1.67,0,0,0-1.38.76,3.6,3.6,0,0,0-.56,2.16,4.05,4.05,0,0,0,.5,2.23,1.63,1.63,0,0,0,1.44.75A1.93,1.93,0,0,0,390.13,95.37Z"/><path class="cls-1" d="M404.13,97.51a4.45,4.45,0,0,1-1.27-1h-.08l-.22,1.06h-2.14V83.51h2.73V87l-.06,1.56a5.25,5.25,0,0,1,1.29-.83,3.37,3.37,0,0,1,1.39-.31,3.42,3.42,0,0,1,2.86,1.36,5.85,5.85,0,0,1,1.05,3.67,6.6,6.6,0,0,1-.58,2.87,4.48,4.48,0,0,1-1.54,1.86,3.65,3.65,0,0,1-2.06.64A3,3,0,0,1,404.13,97.51Zm2.17-2.7a3.94,3.94,0,0,0,.56-2.3q0-2.83-1.86-2.83a2.68,2.68,0,0,0-1.86,1V94.9a2.53,2.53,0,0,0,1.72.7A1.71,1.71,0,0,0,406.31,94.82Z"/><path class="cls-1" d="M412.17,97a2.94,2.94,0,0,1-.81-2.12,2.77,2.77,0,0,1,1.34-2.45A10.22,10.22,0,0,1,417,91.23a1.47,1.47,0,0,0-1.64-1.6,3.57,3.57,0,0,0-1.26.24,9.52,9.52,0,0,0-1.4.68l-1-1.8a7.88,7.88,0,0,1,4.17-1.3,3.65,3.65,0,0,1,2.89,1.11,4.88,4.88,0,0,1,1,3.32V97.6h-2.24l-.2-1h-.06a4.54,4.54,0,0,1-2.95,1.28A2.83,2.83,0,0,1,412.17,97Zm3.95-1.51a4.56,4.56,0,0,0,.89-.69v-1.9a6.18,6.18,0,0,0-2.33.66,1.28,1.28,0,0,0-.7,1.1,1,1,0,0,0,.32.79,1.36,1.36,0,0,0,.9.27A1.83,1.83,0,0,0,416.12,95.49Z"/><path class="cls-1" d="M423.21,97.46a6.21,6.21,0,0,1-1.79-1l1.24-1.72a5.9,5.9,0,0,0,1.33.8,3.36,3.36,0,0,0,1.29.26,1.72,1.72,0,0,0,1-.25.83.83,0,0,0,.34-.71.73.73,0,0,0-.27-.56,2.79,2.79,0,0,0-.77-.45l-1-.41a6.31,6.31,0,0,1-1.93-1.13,2.26,2.26,0,0,1-.75-1.77,2.75,2.75,0,0,1,1-2.21,4.09,4.09,0,0,1,2.71-.85,5.44,5.44,0,0,1,3.43,1.24l-1.22,1.64a3.8,3.8,0,0,0-2.12-.84,1.51,1.51,0,0,0-.93.24.77.77,0,0,0-.31.64.75.75,0,0,0,.4.65,4.5,4.5,0,0,0,.92.43l.68.24a6.15,6.15,0,0,1,2,1.11,2.38,2.38,0,0,1,.73,1.87,2.86,2.86,0,0,1-.47,1.61,3.24,3.24,0,0,1-1.37,1.13,5.09,5.09,0,0,1-2.16.42A5.76,5.76,0,0,1,423.21,97.46Z"/><path class="cls-1" d="M439.23,93.43H433.1a2.58,2.58,0,0,0,1,1.74,3,3,0,0,0,1.79.56,4.4,4.4,0,0,0,2.21-.66l.9,1.66a6,6,0,0,1-1.65.81,5.94,5.94,0,0,1-1.81.29,5.18,5.18,0,0,1-2.54-.62,4.45,4.45,0,0,1-1.78-1.8,6.15,6.15,0,0,1,0-5.51,4.75,4.75,0,0,1,1.71-1.82,4.31,4.31,0,0,1,2.26-.64,3.8,3.8,0,0,1,3.11,1.31,6.11,6.11,0,0,1,1,4.68ZM437,91.61a2.36,2.36,0,0,0-.44-1.51,1.62,1.62,0,0,0-1.34-.55,1.91,1.91,0,0,0-1.31.51,2.69,2.69,0,0,0-.77,1.55Z"/><path class="cls-1" d="M442,96.46a6,6,0,0,1-1.09-3.81,6.16,6.16,0,0,1,.58-2.75A4.57,4.57,0,0,1,443,88.08a3.55,3.55,0,0,1,2-.64,3.18,3.18,0,0,1,1.34.26,4.49,4.49,0,0,1,1.14.8l-.1-1.54V83.51h2.75V97.6h-2.24l-.2-1h-.06a4.77,4.77,0,0,1-1.27.91,3.21,3.21,0,0,1-1.43.35A3.57,3.57,0,0,1,442,96.46Zm4.6-1.09a2.81,2.81,0,0,0,.82-.73V90.39a2.52,2.52,0,0,0-1.76-.7,1.67,1.67,0,0,0-1.38.76,3.6,3.6,0,0,0-.56,2.16,4.05,4.05,0,0,0,.5,2.23,1.63,1.63,0,0,0,1.44.75A1.93,1.93,0,0,0,446.58,95.37Z"/><path class="cls-1" d="M458.68,97.22a4.6,4.6,0,0,1-1.75-1.8,6.16,6.16,0,0,1,0-5.55,4.6,4.6,0,0,1,1.75-1.8,4.83,4.83,0,0,1,4.74,0,4.58,4.58,0,0,1,1.76,1.81,5.64,5.64,0,0,1,.66,2.78,5.58,5.58,0,0,1-.66,2.77,4.59,4.59,0,0,1-1.76,1.8,4.83,4.83,0,0,1-4.74,0Zm3.84-2.39a3.92,3.92,0,0,0,.52-2.17,4,4,0,0,0-.52-2.18,1.74,1.74,0,0,0-2.94,0,4,4,0,0,0-.51,2.18,4,4,0,0,0,.51,2.17,1.76,1.76,0,0,0,2.94,0Z"/><path class="cls-1" d="M467.95,87.68h2.22l.2,1.28h.08a6.63,6.63,0,0,1,1.49-1.11,3.6,3.6,0,0,1,1.71-.41,2.67,2.67,0,0,1,2.31,1,5,5,0,0,1,.75,3V97.6H474V91.77a2.81,2.81,0,0,0-.31-1.54,1.15,1.15,0,0,0-1-.44,2,2,0,0,0-1,.24,5.43,5.43,0,0,0-1,.8V97.6h-2.73Z"/><path class="cls-1" d="M484,96.81a5,5,0,0,1-.75-3V87.68H486v5.83a2.74,2.74,0,0,0,.32,1.53,1.17,1.17,0,0,0,1,.45,1.76,1.76,0,0,0,1-.27,4.14,4.14,0,0,0,.91-.91V87.68h2.73V97.6h-2.22l-.2-1.4h-.08A5.39,5.39,0,0,1,488,97.42a3.39,3.39,0,0,1-1.7.42A2.67,2.67,0,0,1,484,96.81Z"/><path class="cls-1" d="M495.53,97.46a6.21,6.21,0,0,1-1.79-1L495,94.74a5.9,5.9,0,0,0,1.33.8,3.36,3.36,0,0,0,1.29.26,1.72,1.72,0,0,0,1-.25.83.83,0,0,0,.34-.71.73.73,0,0,0-.27-.56,2.79,2.79,0,0,0-.77-.45l-1-.41A6.31,6.31,0,0,1,495,92.28a2.26,2.26,0,0,1-.75-1.77,2.75,2.75,0,0,1,1-2.21,4.09,4.09,0,0,1,2.71-.85,5.44,5.44,0,0,1,3.43,1.24l-1.22,1.64a3.8,3.8,0,0,0-2.12-.84,1.51,1.51,0,0,0-.93.24.77.77,0,0,0-.31.64.75.75,0,0,0,.4.65,4.5,4.5,0,0,0,.92.43l.68.24a6.15,6.15,0,0,1,2,1.11,2.38,2.38,0,0,1,.73,1.87,2.86,2.86,0,0,1-.47,1.61,3.24,3.24,0,0,1-1.37,1.13,5.09,5.09,0,0,1-2.16.42A5.76,5.76,0,0,1,495.53,97.46Z"/><path class="cls-1" d="M511.55,93.43h-6.13a2.58,2.58,0,0,0,1,1.74,3,3,0,0,0,1.79.56,4.4,4.4,0,0,0,2.21-.66l.9,1.66a6,6,0,0,1-1.65.81,5.94,5.94,0,0,1-1.81.29,5.18,5.18,0,0,1-2.54-.62,4.45,4.45,0,0,1-1.78-1.8,6.15,6.15,0,0,1,0-5.51,4.75,4.75,0,0,1,1.71-1.82,4.31,4.31,0,0,1,2.26-.64,3.8,3.8,0,0,1,3.11,1.31,6.11,6.11,0,0,1,1,4.68Zm-2.22-1.82a2.36,2.36,0,0,0-.44-1.51,1.62,1.62,0,0,0-1.34-.55,1.91,1.91,0,0,0-1.31.51,2.69,2.69,0,0,0-.77,1.55Z"/><path class="cls-1" d="M513.76,87.68H516l.2,1.74h.08A4.08,4.08,0,0,1,517.54,88a2.7,2.7,0,0,1,1.53-.51,2.94,2.94,0,0,1,1.16.2L519.77,90l-.36-.09a3,3,0,0,0-.68-.07,2,2,0,0,0-1.24.46,3.38,3.38,0,0,0-1,1.44V97.6h-2.73Z"/><path class="cls-1" d="M525.83,85.73a1.5,1.5,0,0,1,0-2.1,1.71,1.71,0,0,1,2.22,0,1.5,1.5,0,0,1,0,2.1,1.71,1.71,0,0,1-2.22,0Zm-.25,2h2.73V97.6h-2.73Z"/><path class="cls-1" d="M531,87.68h2.22l.2,1.28h.08A6.63,6.63,0,0,1,535,87.85a3.6,3.6,0,0,1,1.71-.41,2.67,2.67,0,0,1,2.31,1,5,5,0,0,1,.75,3V97.6h-2.75V91.77a2.81,2.81,0,0,0-.31-1.54,1.15,1.15,0,0,0-1-.44,2,2,0,0,0-1,.24,5.43,5.43,0,0,0-1,.8V97.6H531Z"/><path class="cls-1" d="M542.41,87.68h2.22l.2,1h.08a5.31,5.31,0,0,1,1.37-.9,3.6,3.6,0,0,1,1.49-.34,3.39,3.39,0,0,1,2.85,1.36,5.93,5.93,0,0,1,1,3.69,6.55,6.55,0,0,1-.58,2.85,4.48,4.48,0,0,1-1.54,1.86,3.65,3.65,0,0,1-2.06.64,3.57,3.57,0,0,1-2.42-1.06l.08,1.6v3h-2.73Zm5.89,7.13a3.94,3.94,0,0,0,.56-2.3q0-2.83-1.86-2.83a2.68,2.68,0,0,0-1.86,1V94.9a2.57,2.57,0,0,0,1.72.7A1.71,1.71,0,0,0,548.31,94.82Z"/><path class="cls-1" d="M554.49,96.81a5,5,0,0,1-.75-3V87.68h2.73v5.83a2.74,2.74,0,0,0,.32,1.53,1.17,1.17,0,0,0,1,.45,1.76,1.76,0,0,0,1-.27,4.14,4.14,0,0,0,.91-.91V87.68h2.73V97.6h-2.22l-.2-1.4h-.08a5.39,5.39,0,0,1-1.42,1.22,3.39,3.39,0,0,1-1.7.42A2.67,2.67,0,0,1,554.49,96.81Z"/><path class="cls-1" d="M566.34,96.85a4.31,4.31,0,0,1-.8-2.78V89.85h-1.38v-2l1.52-.12L566,85h2.26v2.65h2.42v2.16h-2.42v4.21q0,1.62,1.32,1.62a3,3,0,0,0,1-.2l.44,2a6.76,6.76,0,0,1-2.14.36A3.06,3.06,0,0,1,566.34,96.85Z"/><polygon class="cls-4" points="145.08 260.35 145.23 260.31 147.07 260.31 147.07 260.23 147.07 255.69 147.07 122.36 121.94 122.36 83.21 130.23 38.17 122.36 11.67 122.36 11.67 255.69 11.67 260.31 11.67 260.35 145.08 260.35"/><path class="cls-1" d="M43.27,197a5.48,5.48,0,0,1-2.07-2.37,8.35,8.35,0,0,1-.74-3.64,8.13,8.13,0,0,1,.74-3.62,5.39,5.39,0,0,1,2.07-2.31,6.3,6.3,0,0,1,6.15,0,5.32,5.32,0,0,1,2.06,2.32,8.25,8.25,0,0,1,.73,3.61,8.45,8.45,0,0,1-.73,3.64A5.42,5.42,0,0,1,49.42,197a6.17,6.17,0,0,1-6.15,0Zm5.31-2.77a5.62,5.62,0,0,0,.83-3.25,5.39,5.39,0,0,0-.83-3.19,2.75,2.75,0,0,0-4.48,0,5.43,5.43,0,0,0-.82,3.2,5.62,5.62,0,0,0,.83,3.25,2.68,2.68,0,0,0,4.47,0Z"/><path class="cls-1" d="M55.18,196.83a5,5,0,0,1-.75-3V187.7h2.73v5.83a2.74,2.74,0,0,0,.32,1.53,1.17,1.17,0,0,0,1,.45,1.76,1.76,0,0,0,1-.27,4.14,4.14,0,0,0,.91-.91V187.7h2.73v9.92H60.9l-.2-1.4h-.08a5.39,5.39,0,0,1-1.42,1.22,3.39,3.39,0,0,1-1.7.42A2.67,2.67,0,0,1,55.18,196.83Z"/><path class="cls-1" d="M67,196.87a4.31,4.31,0,0,1-.8-2.78v-4.23H64.84v-2l1.52-.12.32-2.65H69v2.65h2.42v2.16H69v4.21q0,1.62,1.32,1.62a3,3,0,0,0,1-.2l.44,2a6.76,6.76,0,0,1-2.14.36A3.06,3.06,0,0,1,67,196.87Z"/><path class="cls-1" d="M73.38,187.7h2.22l.2,1h.08a5.31,5.31,0,0,1,1.37-.9,3.6,3.6,0,0,1,1.49-.34,3.39,3.39,0,0,1,2.85,1.36,5.93,5.93,0,0,1,1,3.69,6.55,6.55,0,0,1-.58,2.85,4.48,4.48,0,0,1-1.54,1.86,3.65,3.65,0,0,1-2.06.64A3.57,3.57,0,0,1,76,196.8l.08,1.6v3H73.38Zm5.89,7.13a3.94,3.94,0,0,0,.56-2.3q0-2.83-1.86-2.83a2.68,2.68,0,0,0-1.86,1v4.25a2.57,2.57,0,0,0,1.72.7A1.71,1.71,0,0,0,79.27,194.83Z"/><path class="cls-1" d="M85.45,196.83a5,5,0,0,1-.75-3V187.7h2.73v5.83a2.74,2.74,0,0,0,.32,1.53,1.17,1.17,0,0,0,1,.45,1.76,1.76,0,0,0,1-.27,4.14,4.14,0,0,0,.91-.91V187.7H93.4v9.92H91.18l-.2-1.4H90.9a5.39,5.39,0,0,1-1.42,1.22,3.39,3.39,0,0,1-1.7.42A2.67,2.67,0,0,1,85.45,196.83Z"/><path class="cls-1" d="M97.31,196.87a4.31,4.31,0,0,1-.8-2.78v-4.23H95.12v-2l1.52-.12.32-2.65h2.26v2.65h2.42v2.16H99.23v4.21q0,1.62,1.32,1.62a3,3,0,0,0,1-.2l.44,2a6.76,6.76,0,0,1-2.14.36A3.06,3.06,0,0,1,97.31,196.87Z"/><path class="cls-1" d="M104.53,197.48a6.21,6.21,0,0,1-1.79-1l1.24-1.72a5.9,5.9,0,0,0,1.33.8,3.36,3.36,0,0,0,1.29.26,1.72,1.72,0,0,0,1-.25.83.83,0,0,0,.34-.71.73.73,0,0,0-.27-.56,2.79,2.79,0,0,0-.77-.45l-1-.41A6.31,6.31,0,0,1,104,192.3a2.26,2.26,0,0,1-.75-1.77,2.75,2.75,0,0,1,1-2.21,4.09,4.09,0,0,1,2.71-.85,5.44,5.44,0,0,1,3.43,1.24l-1.22,1.64a3.8,3.8,0,0,0-2.12-.84,1.51,1.51,0,0,0-.93.24.77.77,0,0,0-.31.64.75.75,0,0,0,.4.65,4.5,4.5,0,0,0,.92.43l.68.24a6.15,6.15,0,0,1,2,1.11,2.38,2.38,0,0,1,.73,1.87,2.86,2.86,0,0,1-.47,1.61,3.24,3.24,0,0,1-1.37,1.13,5.09,5.09,0,0,1-2.16.42A5.76,5.76,0,0,1,104.53,197.48Z"/><circle class="cls-6" cx="297.44" cy="150.11" r="22.08"/><path class="cls-1" d="M303,156.34a10.12,10.12,0,0,1-3.29-1.36,6.49,6.49,0,0,1-4,1.36,5.06,5.06,0,0,1-2.33-.5,3.51,3.51,0,0,1-1.48-1.35,3.62,3.62,0,0,1-.5-1.87,3.43,3.43,0,0,1,.64-2.1,6.54,6.54,0,0,1,1.78-1.58,6,6,0,0,1-.82-2.79,3.42,3.42,0,0,1,.43-1.69,3.16,3.16,0,0,1,1.22-1.22,3.64,3.64,0,0,1,1.83-.45,3.17,3.17,0,0,1,2.26.79,2.77,2.77,0,0,1,.84,2.11,3,3,0,0,1-.73,2,10.07,10.07,0,0,1-2.05,1.73,15,15,0,0,0,2.75,2.58,9.63,9.63,0,0,0,1.56-3.25h2.5a15.33,15.33,0,0,1-2.2,4.47,6.92,6.92,0,0,0,2.28.88Zm-8.47-2.6a2.18,2.18,0,0,0,1.47.49,3.3,3.3,0,0,0,1.8-.6,17.72,17.72,0,0,1-2.85-2.91,3.81,3.81,0,0,0-.74.84,1.65,1.65,0,0,0-.26.88A1.62,1.62,0,0,0,294.54,153.75Zm1.15-5.94a5.62,5.62,0,0,0,1.31-1,1.62,1.62,0,0,0,.45-1.13,1.21,1.21,0,0,0-.24-.79.89.89,0,0,0-.72-.29,1.14,1.14,0,0,0-.9.42,1.67,1.67,0,0,0-.36,1.12A3.6,3.6,0,0,0,295.7,147.81Z"/><path class="cls-7" d="M373.88,279.75H387a.25.25,0,1,0,0-.51H373.88a.25.25,0,0,0,0,.51"/><path class="cls-1" d="M499.66,148.37h3.63a6.7,6.7,0,0,1,4.8,1.62,6.4,6.4,0,0,1,1.71,4.87,6.62,6.62,0,0,1-1.69,4.92,6.34,6.34,0,0,1-4.66,1.67h-3.79Zm3.47,10.86q3.85,0,3.85-4.37a4.52,4.52,0,0,0-1-3.27,3.84,3.84,0,0,0-2.86-1h-.72v8.64Z"/><path class="cls-1" d="M520.2,157.28h-6.13a2.58,2.58,0,0,0,1,1.74,3,3,0,0,0,1.79.56,4.4,4.4,0,0,0,2.2-.66l.9,1.66a6,6,0,0,1-1.65.81,5.94,5.94,0,0,1-1.81.29,5.18,5.18,0,0,1-2.54-.62,4.46,4.46,0,0,1-1.78-1.8,6.16,6.16,0,0,1,0-5.51,4.75,4.75,0,0,1,1.71-1.82,4.31,4.31,0,0,1,2.26-.64,3.8,3.8,0,0,1,3.11,1.31,6.11,6.11,0,0,1,1,4.68ZM518,155.46a2.36,2.36,0,0,0-.44-1.51,1.62,1.62,0,0,0-1.34-.55,1.91,1.91,0,0,0-1.31.51,2.69,2.69,0,0,0-.77,1.55Z"/><path class="cls-1" d="M523.58,160.7a4.31,4.31,0,0,1-.8-2.78V153.7H521.4v-2l1.52-.12.32-2.65h2.26v2.65h2.42v2.16h-2.42v4.21q0,1.62,1.32,1.62a3,3,0,0,0,1-.2l.44,2a6.76,6.76,0,0,1-2.14.36A3.06,3.06,0,0,1,523.58,160.7Z"/><path class="cls-1" d="M530.27,160.85a2.94,2.94,0,0,1-.81-2.12,2.77,2.77,0,0,1,1.34-2.45,10.22,10.22,0,0,1,4.31-1.19,1.47,1.47,0,0,0-1.64-1.6,3.57,3.57,0,0,0-1.26.24,9.5,9.5,0,0,0-1.4.68l-1-1.8a7.88,7.88,0,0,1,4.17-1.3,3.65,3.65,0,0,1,2.89,1.11,4.88,4.88,0,0,1,1,3.32v5.73h-2.24l-.2-1h-.06a4.54,4.54,0,0,1-2.95,1.28A2.83,2.83,0,0,1,530.27,160.85Zm3.95-1.51a4.54,4.54,0,0,0,.89-.69v-1.9a6.17,6.17,0,0,0-2.32.66,1.28,1.28,0,0,0-.7,1.1,1,1,0,0,0,.32.79,1.36,1.36,0,0,0,.9.27A1.83,1.83,0,0,0,534.21,159.34Z"/><path class="cls-1" d="M540.69,149.58a1.5,1.5,0,0,1,0-2.1,1.71,1.71,0,0,1,2.22,0,1.5,1.5,0,0,1,0,2.1,1.71,1.71,0,0,1-2.22,0Zm-.25,2h2.73v9.92h-2.73Z"/><path class="cls-1" d="M546.49,160.87a3.88,3.88,0,0,1-.6-2.32V147.36h2.73v11.3a.94.94,0,0,0,.16.61.47.47,0,0,0,.36.19,1.48,1.48,0,0,0,.36,0l.34,2a4,4,0,0,1-1.4.22A2.25,2.25,0,0,1,546.49,160.87Z"/><path class="cls-1" d="M551.77,149.58a1.5,1.5,0,0,1,0-2.1,1.71,1.71,0,0,1,2.22,0,1.5,1.5,0,0,1,0,2.1,1.71,1.71,0,0,1-2.22,0Zm-.25,2h2.73v9.92h-2.73Z"/><path class="cls-1" d="M565.06,157.28h-6.13a2.58,2.58,0,0,0,1,1.74,3,3,0,0,0,1.79.56,4.4,4.4,0,0,0,2.2-.66l.9,1.66a6,6,0,0,1-1.65.81,5.94,5.94,0,0,1-1.81.29,5.18,5.18,0,0,1-2.54-.62,4.46,4.46,0,0,1-1.78-1.8,6.16,6.16,0,0,1,0-5.51,4.75,4.75,0,0,1,1.71-1.82,4.31,4.31,0,0,1,2.26-.64,3.8,3.8,0,0,1,3.11,1.31,6.11,6.11,0,0,1,1,4.68Zm-2.22-1.82a2.36,2.36,0,0,0-.44-1.51,1.62,1.62,0,0,0-1.34-.55,1.91,1.91,0,0,0-1.31.51,2.69,2.69,0,0,0-.77,1.55Z"/><path class="cls-1" d="M567.82,160.31a6,6,0,0,1-1.09-3.81,6.15,6.15,0,0,1,.58-2.75,4.56,4.56,0,0,1,1.53-1.82,3.55,3.55,0,0,1,2-.64,3.17,3.17,0,0,1,1.34.26,4.48,4.48,0,0,1,1.14.8l-.1-1.54v-3.45H576v14.09h-2.24l-.2-1h-.06a4.76,4.76,0,0,1-1.27.91,3.21,3.21,0,0,1-1.43.35A3.57,3.57,0,0,1,567.82,160.31Zm4.6-1.09a2.82,2.82,0,0,0,.82-.73v-4.25a2.52,2.52,0,0,0-1.76-.7,1.67,1.67,0,0,0-1.38.76,3.6,3.6,0,0,0-.56,2.16,4,4,0,0,0,.5,2.23,1.63,1.63,0,0,0,1.44.75A1.93,1.93,0,0,0,572.42,159.22Z"/><path class="cls-1" d="M505.54,185.13a4.26,4.26,0,0,1-1.62-1.75,5.86,5.86,0,0,1-.59-2.73,5.63,5.63,0,0,1,.63-2.73,4.43,4.43,0,0,1,1.69-1.77,4.54,4.54,0,0,1,2.3-.61,4,4,0,0,1,2.83,1.16l-.76,1a4,4,0,0,0-1-.67,2.38,2.38,0,0,0-1-.23,2.82,2.82,0,0,0-1.62.49,3.3,3.3,0,0,0-1.13,1.37,4.73,4.73,0,0,0-.41,2,4.32,4.32,0,0,0,.86,2.81,2.77,2.77,0,0,0,2.26,1.06,3.46,3.46,0,0,0,2.36-1l.64,1a5.21,5.21,0,0,1-1.46.91,4.32,4.32,0,0,1-1.66.33A4.46,4.46,0,0,1,505.54,185.13Z"/><path class="cls-1" d="M513.56,185.23a2.51,2.51,0,0,1-.38-1.51V171.19h1.44v12.65a.83.83,0,0,0,.13.51.4.4,0,0,0,.33.17,1.85,1.85,0,0,0,.36,0l.2,1.12a2.55,2.55,0,0,1-.88.14A1.4,1.4,0,0,1,513.56,185.23Z"/><path class="cls-1" d="M525.55,181h-6.71a3.89,3.89,0,0,0,1.05,2.65,3.19,3.19,0,0,0,2.33.94,4.41,4.41,0,0,0,2.46-.78l.54,1a7.25,7.25,0,0,1-1.48.73,5.06,5.06,0,0,1-1.7.27,4.57,4.57,0,0,1-2.33-.61,4.32,4.32,0,0,1-1.66-1.77,6.25,6.25,0,0,1,0-5.39,4.58,4.58,0,0,1,1.61-1.79,3.92,3.92,0,0,1,2.12-.63,3.47,3.47,0,0,1,2.82,1.21,5.05,5.05,0,0,1,1,3.34A5.48,5.48,0,0,1,525.55,181Zm-1.24-1.06a3.69,3.69,0,0,0-.66-2.36,2.24,2.24,0,0,0-1.84-.82,2.68,2.68,0,0,0-1.92.82,3.72,3.72,0,0,0-1,2.36Z"/><path class="cls-1" d="M528.21,185a2.58,2.58,0,0,1-.8-2,2.68,2.68,0,0,1,1.44-2.44,12,12,0,0,1,4.61-1.19,3.4,3.4,0,0,0-.47-1.87,1.77,1.77,0,0,0-1.61-.73,5.31,5.31,0,0,0-2.95,1.06l-.58-1a6.79,6.79,0,0,1,3.77-1.28,2.92,2.92,0,0,1,2.48,1.05,4.68,4.68,0,0,1,.8,2.9v6h-1.2l-.12-1.18h-.06a5.25,5.25,0,0,1-3.27,1.42A2.94,2.94,0,0,1,528.21,185Zm3.8-.79a6.64,6.64,0,0,0,1.45-1v-2.85a9.77,9.77,0,0,0-3.56.92,1.86,1.86,0,0,0-1.05,1.64,1.5,1.5,0,0,0,.5,1.23,2,2,0,0,0,1.28.41A3.08,3.08,0,0,0,532,184.23Z"/><path class="cls-1" d="M538.09,175.78h1.2l.12,1.44h.06A7.61,7.61,0,0,1,541,176a3.36,3.36,0,0,1,1.69-.44,2.64,2.64,0,0,1,2.24,1,4.66,4.66,0,0,1,.72,2.84v6.17h-1.46v-6a3.62,3.62,0,0,0-.45-2,1.67,1.67,0,0,0-1.47-.64,2.57,2.57,0,0,0-1.34.37,7.89,7.89,0,0,0-1.44,1.19v7.11h-1.44Z"/><path class="cls-1" d="M549,173.42a1,1,0,0,1-.28-.74A.94.94,0,0,1,549,172a1.1,1.1,0,0,1,1.44,0,1,1,0,0,1,.28.71,1,1,0,0,1-.28.74,1.07,1.07,0,0,1-1.44,0Zm0,2.36h1.44v9.72H549Z"/><path class="cls-1" d="M553.82,175.78H555l.12,1.44h.06a7.61,7.61,0,0,1,1.57-1.24,3.36,3.36,0,0,1,1.69-.44,2.64,2.64,0,0,1,2.24,1,4.66,4.66,0,0,1,.72,2.84v6.17H560v-6a3.62,3.62,0,0,0-.45-2,1.67,1.67,0,0,0-1.47-.64,2.57,2.57,0,0,0-1.34.37,7.89,7.89,0,0,0-1.44,1.19v7.11h-1.44Z"/><path class="cls-1" d="M565,189.33a2.18,2.18,0,0,1-1.09-1.92,2.21,2.21,0,0,1,.37-1.2,3.64,3.64,0,0,1,1.05-1v-.08a1.9,1.9,0,0,1-.62-.64,1.79,1.79,0,0,1-.24-.94,1.84,1.84,0,0,1,.31-1,2.76,2.76,0,0,1,.75-.77v-.08a3.49,3.49,0,0,1-.88-1.1,3.16,3.16,0,0,1-.36-1.5,3.42,3.42,0,0,1,.48-1.81,3.28,3.28,0,0,1,1.3-1.22,3.83,3.83,0,0,1,1.8-.43,4,4,0,0,1,1.34.24h3.37v1.14h-2.06a2.74,2.74,0,0,1,.62.92,3,3,0,0,1,.24,1.18,3.39,3.39,0,0,1-.46,1.77,3.15,3.15,0,0,1-1.26,1.19,3.78,3.78,0,0,1-1.78.42,3.27,3.27,0,0,1-1.48-.34,2.23,2.23,0,0,0-.49.53,1.24,1.24,0,0,0-.17.67,1,1,0,0,0,.39.81,2.3,2.3,0,0,0,1.33.29h1.94a4.53,4.53,0,0,1,2.53.56,2,2,0,0,1,.82,1.74,2.64,2.64,0,0,1-.6,1.65,4.12,4.12,0,0,1-1.7,1.23A6.5,6.5,0,0,1,568,190,5.34,5.34,0,0,1,565,189.33Zm4.77-.63a2.73,2.73,0,0,0,1.13-.78,1.61,1.61,0,0,0,.4-1,1,1,0,0,0-.5-1,3.12,3.12,0,0,0-1.52-.29h-1.78a5,5,0,0,1-1.24-.16,2.12,2.12,0,0,0-1.06,1.74,1.47,1.47,0,0,0,.78,1.3,4.08,4.08,0,0,0,2.14.48A4.46,4.46,0,0,0,569.8,188.7Zm-.36-8a2.71,2.71,0,0,0,0-3.47,2,2,0,0,0-1.54-.65,2.08,2.08,0,0,0-1.55.65,2.39,2.39,0,0,0-.63,1.73,2.43,2.43,0,0,0,.63,1.73,2,2,0,0,0,1.55.67A2,2,0,0,0,569.44,180.74Z"/><path class="cls-1" d="M513.4,199.83h1.2l.12,1.78h.06a4.4,4.4,0,0,1,1.22-1.48,2.53,2.53,0,0,1,1.54-.54,2.31,2.31,0,0,1,1,.2l-.28,1.28a3.2,3.2,0,0,0-.92-.16,2.11,2.11,0,0,0-1.35.56,4.37,4.37,0,0,0-1.15,1.74v6.33H513.4Z"/><path class="cls-1" d="M527.57,205h-6.71a3.89,3.89,0,0,0,1.05,2.65,3.19,3.19,0,0,0,2.33.94,4.41,4.41,0,0,0,2.46-.78l.54,1a7.25,7.25,0,0,1-1.48.73,5.06,5.06,0,0,1-1.7.27,4.57,4.57,0,0,1-2.33-.61,4.32,4.32,0,0,1-1.66-1.77,6.25,6.25,0,0,1,0-5.39,4.58,4.58,0,0,1,1.61-1.79,3.92,3.92,0,0,1,2.12-.63,3.47,3.47,0,0,1,2.82,1.21,5.05,5.05,0,0,1,1,3.34A5.48,5.48,0,0,1,527.57,205ZM526.33,204a3.69,3.69,0,0,0-.66-2.36,2.24,2.24,0,0,0-1.84-.82,2.68,2.68,0,0,0-1.92.82,3.72,3.72,0,0,0-1,2.36Z"/><path class="cls-1" d="M530.08,199.83h1.2l.12,1.16h.06a5.13,5.13,0,0,1,3.15-1.4,3.34,3.34,0,0,1,2.86,1.33,5.93,5.93,0,0,1,1,3.62,6.32,6.32,0,0,1-.58,2.8,4.45,4.45,0,0,1-1.54,1.82,3.73,3.73,0,0,1-2.08.63,4.58,4.58,0,0,1-2.77-1.14l0,1.72v3.35h-1.44Zm5.44,8.23a3.23,3.23,0,0,0,1.05-1.39,5.38,5.38,0,0,0,.38-2.1,5,5,0,0,0-.65-2.74,2.26,2.26,0,0,0-2-1,4.32,4.32,0,0,0-2.75,1.4v5.25a4.67,4.67,0,0,0,1.3.81,3.27,3.27,0,0,0,1.18.25A2.5,2.5,0,0,0,535.52,208.05Z"/><path class="cls-1" d="M542.62,209.18a4.39,4.39,0,0,1-1.63-1.76,5.71,5.71,0,0,1-.61-2.72A5.77,5.77,0,0,1,541,202a4.38,4.38,0,0,1,1.63-1.77,4.35,4.35,0,0,1,4.45,0A4.39,4.39,0,0,1,548.7,202a5.78,5.78,0,0,1,.61,2.73,5.72,5.72,0,0,1-.61,2.72,4.4,4.4,0,0,1-1.63,1.76,4.35,4.35,0,0,1-4.45,0Zm3.76-1.09a3.18,3.18,0,0,0,1.05-1.36,5.57,5.57,0,0,0,0-4,3.25,3.25,0,0,0-1.05-1.37,2.64,2.64,0,0,0-3.07,0,3.18,3.18,0,0,0-1,1.37,5.18,5.18,0,0,0-.37,2,4.46,4.46,0,0,0,.82,2.81,2.67,2.67,0,0,0,3.66.58Z"/><path class="cls-1" d="M552,199.83h1.2l.12,1.78h.06a4.4,4.4,0,0,1,1.22-1.48,2.53,2.53,0,0,1,1.54-.54,2.31,2.31,0,0,1,1,.2l-.28,1.28a3.2,3.2,0,0,0-.92-.16,2.11,2.11,0,0,0-1.35.56,4.37,4.37,0,0,0-1.15,1.74v6.33H552Z"/><path class="cls-1" d="M559.65,209a3.83,3.83,0,0,1-.62-2.34V201h-1.46v-1.1l1.52-.1.18-2.75h1.22v2.75h2.67V201H560.5v5.63a2.44,2.44,0,0,0,.35,1.44,1.38,1.38,0,0,0,1.19.48,3.44,3.44,0,0,0,1.12-.26l.3,1.1a5.84,5.84,0,0,1-1.74.36A2.42,2.42,0,0,1,559.65,209Z"/><circle class="cls-6" cx="457.77" cy="150.11" r="22.08"/><path class="cls-1" d="M463.34,156.34a10.12,10.12,0,0,1-3.29-1.36,6.49,6.49,0,0,1-4,1.36,5.06,5.06,0,0,1-2.33-.5,3.51,3.51,0,0,1-1.48-1.35,3.62,3.62,0,0,1-.5-1.87,3.43,3.43,0,0,1,.64-2.1,6.54,6.54,0,0,1,1.78-1.58,6,6,0,0,1-.82-2.79,3.42,3.42,0,0,1,.43-1.69,3.16,3.16,0,0,1,1.22-1.22,3.64,3.64,0,0,1,1.83-.45,3.17,3.17,0,0,1,2.26.79,2.77,2.77,0,0,1,.84,2.11,3,3,0,0,1-.73,2,10.07,10.07,0,0,1-2.05,1.73,15,15,0,0,0,2.75,2.58,9.63,9.63,0,0,0,1.56-3.25h2.5a15.33,15.33,0,0,1-2.2,4.47,6.92,6.92,0,0,0,2.28.88Zm-8.47-2.6a2.18,2.18,0,0,0,1.47.49,3.3,3.3,0,0,0,1.8-.6,17.72,17.72,0,0,1-2.85-2.91,3.81,3.81,0,0,0-.74.84,1.65,1.65,0,0,0-.26.88A1.62,1.62,0,0,0,454.88,153.75Zm1.15-5.94a5.62,5.62,0,0,0,1.31-1,1.62,1.62,0,0,0,.45-1.13,1.21,1.21,0,0,0-.24-.79.89.89,0,0,0-.72-.29,1.14,1.14,0,0,0-.9.42,1.67,1.67,0,0,0-.36,1.12A3.6,3.6,0,0,0,456,147.81Z"/><rect class="cls-8" x="591.19" y="10.29" width="51.39" height="42.45"/><rect class="cls-1" x="623.75" y="21.46" width="1.86" height="21.16"/><path class="cls-9" d="M622.13,25.17a3.6,3.6,0,0,1-3.48-3.7,3.48,3.48,0,1,1,7,0"/><path class="cls-10" d="M622.13,23.19a1.73,1.73,0,1,1,1.62-1.73"/><path class="cls-10" d="M625.61,21.46V42a.48.48,0,0,1-.46.49h-.46"/><path class="cls-9" d="M623.75,21.46V46.15a1.2,1.2,0,0,1-1.16,1.23H605.44a1.2,1.2,0,0,1-1.16-1.23v-20"/><path class="cls-11" d="M608.66,32.55h-2.19c-.08,0-.14.27-.14.6v1.19c0,.33.06.6.14.6h2.19c.08,0,.14-.27.14-.6V33.15C608.8,32.82,608.74,32.55,608.66,32.55Z"/><line class="cls-10" x1="610.85" y1="33.15" x2="620.97" y2="33.15"/><line class="cls-10" x1="610.85" y1="34.75" x2="616.93" y2="34.75"/><line class="cls-10" x1="610.85" y1="37.76" x2="620.97" y2="37.76"/><line class="cls-10" x1="610.85" y1="39.11" x2="619.37" y2="39.11"/><path class="cls-1" d="M606.83,17.76h-1.39a3.6,3.6,0,0,0-3.48,3.7,3.6,3.6,0,0,0,3.48,3.7h16.69a3.6,3.6,0,0,1-3.48-3.7,3.6,3.6,0,0,1,3.48-3.7H611"/><path class="cls-10" d="M606.83,17.76h-1.39a3.6,3.6,0,0,0-3.48,3.7,3.6,3.6,0,0,0,3.48,3.7h16.69a3.6,3.6,0,0,1-3.48-3.7,3.6,3.6,0,0,1,3.48-3.7H611"/><line class="cls-12" x1="609.61" y1="17.76" x2="608.22" y2="17.76"/><line class="cls-10" x1="609.61" y1="17.76" x2="608.22" y2="17.76"/><line class="cls-10" x1="610.85" y1="42.12" x2="620.97" y2="42.12"/><line class="cls-10" x1="610.85" y1="43.72" x2="614.23" y2="43.72"/><path class="cls-11" d="M608.66,37.14h-2.19c-.08,0-.14.27-.14.6v1.2c0,.33.06.6.14.6h2.19c.08,0,.14-.27.14-.6v-1.2C608.8,37.41,608.74,37.14,608.66,37.14Z"/><path class="cls-11" d="M608.66,41.74h-2.19c-.08,0-.14.27-.14.6v1.2c0,.33.06.6.14.6h2.19c.08,0,.14-.27.14-.6v-1.2C608.8,42,608.74,41.74,608.66,41.74Z"/><path class="cls-1" d="M619.83,38.44l3.11,1.91,13-24a1.65,1.65,0,0,0-.55-2.17l-.52-.32a1.45,1.45,0,0,0-2,.58Z"/><path class="cls-9" d="M619.83,38.44l3.11,1.91,13-24a1.65,1.65,0,0,0-.55-2.17l-.52-.32a1.45,1.45,0,0,0-2,.58Z"/><polygon class="cls-9" points="619.83 38.44 622.94 40.35 621.45 43.11 618.1 45.46 618.34 41.2 619.83 38.44"/><polygon class="cls-9" points="618.26 42.62 618.1 45.46 620.33 43.89 618.26 42.62"/><path class="cls-9" d="M630.34,15.86l-3.59,6.62a.66.66,0,0,0,.22.87l.78.48,4.18-7.72-.78-.48A.58.58,0,0,0,630.34,15.86Z"/><line class="cls-9" x1="628.92" y1="29.32" x2="625.81" y2="27.41"/><rect class="cls-13" x="591.19" y="62.96" width="51.39" height="42.45"/><rect class="cls-1" x="626.16" y="92.1" width="8.02" height="2.17"/><rect class="cls-1" x="628.88" y="79.31" width="2.46" height="12.15"/><rect class="cls-1" x="607.79" y="70.12" width="14.99" height="12.3"/><rect class="cls-1" x="623.27" y="71.74" width="1.51" height="9.11"/><path class="cls-14" d="M623,80.86a.32.32,0,0,1-.32-.32v-10a.32.32,0,0,0-.32-.32H608.18a.32.32,0,0,0-.32.32V77a.32.32,0,1,1-.64,0V70.58a1,1,0,0,1,1-1h14.13a1,1,0,0,1,1,1v10a.32.32,0,0,1-.32.32"/><path class="cls-14" d="M624.88,80.86a.32.32,0,0,1-.32-.32v-8a.32.32,0,0,0-.32-.32.32.32,0,1,1,0-.64,1,1,0,0,1,1,1v8a.32.32,0,0,1-.32.32"/><path class="cls-14" d="M631.3,92.1h-2.57a.32.32,0,0,1-.32-.32V79.57a1,1,0,0,1,1-1h1.28a1,1,0,0,1,1,1v12.2a.32.32,0,0,1-.32.32m-2.25-.64H631V79.57a.32.32,0,0,0-.32-.32h-1.28a.32.32,0,0,0-.32.32Z"/><path class="cls-14" d="M633.55,94.67h-7.07a1,1,0,0,1-1-1V92.42a1,1,0,0,1,1-1h7.07a1,1,0,0,1,1,1V93.7a1,1,0,0,1-1,1m-7.07-2.57a.32.32,0,0,0-.32.32V93.7a.32.32,0,0,0,.32.32h7.07a.32.32,0,0,0,.32-.32V92.42a.32.32,0,0,0-.32-.32Z"/><path class="cls-1" d="M634.65,100.77h-9.27a.64.64,0,0,1-.62-.8l1.41-5.62h7.71l1.41,5.63a.64.64,0,0,1-.62.8"/><path class="cls-14" d="M634.65,101.09h-9.27a1,1,0,0,1-.93-1.2l1.41-5.63a.32.32,0,0,1,.31-.24h7.71a.32.32,0,0,1,.31.24l1.41,5.63a1,1,0,0,1-.93,1.2m-8.24-6.42L625.07,100a.32.32,0,0,0,.31.4h9.27a.32.32,0,0,0,.31-.4l-1.35-5.38Z"/><path class="cls-1" d="M624.78,94.58a1.91,1.91,0,0,1-.22-.88V92.42a1.93,1.93,0,0,1,1.93-1.93h1V83.43a1.61,1.61,0,0,0-1.61-1.61h-5.6a1.6,1.6,0,0,1-.91-.28l-4.32-3a1.6,1.6,0,0,0-.91-.28h-8.82a1.61,1.61,0,0,0-1.61,1.61V95.31a1.61,1.61,0,0,0,1.61,1.61h18.91Z"/><path class="cls-14" d="M628.09,101.09a.32.32,0,0,1-.32-.32V97.56a.32.32,0,1,1,.64,0v3.21a.32.32,0,0,1-.32.32"/><path class="cls-14" d="M631.94,101.09a.32.32,0,0,1-.32-.32V97.56a.32.32,0,1,1,.64,0v3.21a.32.32,0,0,1-.32.32"/><path class="cls-15" d="M624.2,97.24H605.29a1.93,1.93,0,0,1-1.93-1.93V79.89A1.93,1.93,0,0,1,605.29,78h8.82a1.92,1.92,0,0,1,1.09.34l4.32,3a1.29,1.29,0,0,0,.73.23h5.6a1.93,1.93,0,0,1,1.93,1.93.32.32,0,0,1-.64,0,1.29,1.29,0,0,0-1.28-1.28h-5.6a1.93,1.93,0,0,1-1.09-.34l-4.32-3a1.28,1.28,0,0,0-.73-.23h-8.82A1.29,1.29,0,0,0,604,79.89V95.31a1.29,1.29,0,0,0,1.28,1.28H624.2a.32.32,0,1,1,0,.64"/><path class="cls-14" d="M620.06,73.47h-9.64a.32.32,0,1,1,0-.64h9.64a.32.32,0,0,1,0,.64"/><path class="cls-14" d="M620.06,76h-9.64a.32.32,0,1,1,0-.64h9.64a.32.32,0,1,1,0,.64"/><path class="cls-14" d="M625.52,87.28a.32.32,0,0,1-.32-.32V84.39a.32.32,0,0,0-.32-.32h-2.57a.32.32,0,1,1,0-.64h2.57a1,1,0,0,1,1,1V87a.32.32,0,0,1-.32.32"/><rect class="cls-6" x="193.09" y="252.58" width="51.39" height="42.45"/><rect class="cls-1" x="211.04" y="286.72" width="15.62" height="2.17"/><rect class="cls-1" x="210.02" y="269.96" width="17.53" height="16.43"/><path class="cls-7" d="M209.45,285.26v-2.83a1.7,1.7,0,0,1,1.7-1.7h15.27a1.7,1.7,0,0,1,1.7,1.7v2.83a1.7,1.7,0,0,1-1.7,1.7H211.15a1.7,1.7,0,0,1-1.7-1.7m1.7-4a1.13,1.13,0,0,0-1.13,1.13v2.83a1.13,1.13,0,0,0,1.13,1.13h15.27a1.13,1.13,0,0,0,1.13-1.13v-2.83a1.13,1.13,0,0,0-1.13-1.13Z"/><path class="cls-7" d="M222.74,283.84a1.13,1.13,0,1,1,1.13,1.13,1.13,1.13,0,0,1-1.13-1.13m.57,0a.57.57,0,1,0,.57-.57.57.57,0,0,0-.57.57"/><path class="cls-7" d="M213.13,284.13H221a.28.28,0,1,0,0-.57h-7.92a.28.28,0,1,0,0,.57"/><path class="cls-7" d="M209.45,279.6v-2.83a1.7,1.7,0,0,1,1.7-1.7h15.27a1.7,1.7,0,0,1,1.7,1.7v2.83a1.7,1.7,0,0,1-1.7,1.7H211.15a1.7,1.7,0,0,1-1.7-1.7m1.7-4a1.13,1.13,0,0,0-1.13,1.13v2.83a1.13,1.13,0,0,0,1.13,1.13h15.27a1.13,1.13,0,0,0,1.13-1.13v-2.83a1.13,1.13,0,0,0-1.13-1.13Z"/><path class="cls-7" d="M222.74,278.19a1.13,1.13,0,1,1,1.13,1.13,1.13,1.13,0,0,1-1.13-1.13m.57,0a.57.57,0,1,0,.57-.57.57.57,0,0,0-.57.57"/><path class="cls-7" d="M213.13,278.47H221a.28.28,0,1,0,0-.57h-7.92a.28.28,0,1,0,0,.57"/><path class="cls-7" d="M209.45,273.94v-2.83a1.7,1.7,0,0,1,1.7-1.7h15.27a1.7,1.7,0,0,1,1.7,1.7v2.83a1.7,1.7,0,0,1-1.7,1.7H211.15a1.7,1.7,0,0,1-1.7-1.7m1.7-4a1.13,1.13,0,0,0-1.13,1.13v2.83a1.13,1.13,0,0,0,1.13,1.13h15.27a1.13,1.13,0,0,0,1.13-1.13v-2.83a1.13,1.13,0,0,0-1.13-1.13Z"/><path class="cls-7" d="M222.74,272.53a1.13,1.13,0,1,1,1.13,1.13,1.13,1.13,0,0,1-1.13-1.13m.57,0a.57.57,0,1,0,.57-.57.57.57,0,0,0-.57.57"/><path class="cls-7" d="M213.13,272.81H221a.28.28,0,1,0,0-.56h-7.92a.28.28,0,1,0,0,.56"/><path class="cls-7" d="M210.58,288.93v-2.26a.28.28,0,0,1,.28-.28H226.7a.28.28,0,0,1,.28.28v2.26a.28.28,0,0,1-.28.28H210.87a.28.28,0,0,1-.28-.28m15.84-2H211.15v1.7h15.27Z"/><path class="cls-1" d="M221.61,264.33h6.46a4.24,4.24,0,0,0,4.06-3l.79-2.63h-6.46a4.24,4.24,0,0,0-4.06,3Z"/><path class="cls-7" d="M221.38,264.5a.28.28,0,0,1,0-.25l.79-2.63a4.5,4.5,0,0,1,4.33-3.23h6.46a.28.28,0,0,1,.27.36l-.79,2.63a4.5,4.5,0,0,1-4.33,3.23h-6.46a.28.28,0,0,1-.23-.11m5.08-5.54a3.94,3.94,0,0,0-3.79,2.82L222,264h6.08a3.93,3.93,0,0,0,3.79-2.82l.68-2.27Z"/><path class="cls-7" d="M218.78,268.85a.28.28,0,0,0,.28-.28v-2.83a4,4,0,0,1,4-4h4.24a.28.28,0,1,0,0-.57H223a4.53,4.53,0,0,0-4.53,4.53v2.83a.28.28,0,0,0,.28.28"/><path class="cls-1" d="M216,264.33H209.5a4.24,4.24,0,0,1-4.06-3l-.79-2.63h6.46a4.24,4.24,0,0,1,4.06,3Z"/><path class="cls-7" d="M205.16,261.39l-.79-2.63a.28.28,0,0,1,0-.25.28.28,0,0,1,.23-.11h6.46a4.49,4.49,0,0,1,4.33,3.23l.79,2.63a.28.28,0,0,1-.27.36H209.5a4.5,4.5,0,0,1-4.33-3.22m9.73.39A3.94,3.94,0,0,0,211.1,259H205l.68,2.27A3.94,3.94,0,0,0,209.5,264h6.08Z"/><path class="cls-7" d="M218.78,268.85a.28.28,0,0,0,.28-.28v-2.83a4.53,4.53,0,0,0-4.53-4.53H210.3a.28.28,0,0,0,0,.57h4.24a4,4,0,0,1,4,4v2.83a.28.28,0,0,0,.28.28"/><rect class="cls-6" x="512" y="252.5" width="51.39" height="42.45"/><rect class="cls-1" x="528.42" y="260.89" width="17.7" height="23.99"/><rect class="cls-1" x="525.83" y="258.33" width="17.7" height="23.99"/><rect class="cls-1" x="530.96" y="263.43" width="17.72" height="23.99"/><path class="cls-7" d="M529.44,285.27h.25a.25.25,0,0,0,0-.51h-.25a1,1,0,0,1-1-1V262a1,1,0,0,1,1-1h15.68a1,1,0,0,1,1,1v.25a.25.25,0,1,0,.5,0V262a1.52,1.52,0,0,0-1.52-1.52H529.44a1.52,1.52,0,0,0-1.52,1.52v21.75a1.52,1.52,0,0,0,1.52,1.52"/><path class="cls-7" d="M526.91,282.75h.25a.25.25,0,1,0,0-.51h-.25a1,1,0,0,1-1-1V259.48a1,1,0,0,1,1-1h15.68a1,1,0,0,1,1,1v.25a.25.25,0,1,0,.5,0v-.25a1.52,1.52,0,0,0-1.52-1.52H526.91a1.52,1.52,0,0,0-1.52,1.52v21.75a1.52,1.52,0,0,0,1.52,1.52"/><path class="cls-7" d="M530.45,286.29V264.54A1.52,1.52,0,0,1,532,263h15.68a1.52,1.52,0,0,1,1.52,1.52v21.75a1.52,1.52,0,0,1-1.52,1.52H532a1.52,1.52,0,0,1-1.52-1.52M532,263.52a1,1,0,0,0-1,1v21.75a1,1,0,0,0,1,1h15.68a1,1,0,0,0,1-1V264.54a1,1,0,0,0-1-1Z"/><path class="cls-7" d="M544.36,271.37v-2.53a.25.25,0,0,1,.25-.25h1.77a.25.25,0,0,1,.25.25v2.53a.25.25,0,0,1-.25.25h-1.77a.25.25,0,0,1-.25-.25m1.77-2.28h-1.26v2h1.26Z"/><path class="cls-7" d="M537.78,271.37v-3.79a.25.25,0,0,1,.25-.25h1.77a.25.25,0,0,1,.25.25v3.79a.25.25,0,0,1-.25.25H538a.25.25,0,0,1-.25-.25m1.77-3.54h-1.26v3.29h1.26Z"/><rect class="cls-1" x="534.75" y="266.81" width="1.77" height="4.55"/><path class="cls-7" d="M534.49,271.37v-4.55a.25.25,0,0,1,.25-.25h1.77a.25.25,0,0,1,.25.25v4.55a.25.25,0,0,1-.25.25h-1.77a.25.25,0,0,1-.25-.25m1.77-4.3H535v4h1.27Z"/><rect class="cls-1" x="541.32" y="265.55" width="1.77" height="5.82"/><path class="cls-7" d="M541.07,271.37v-5.82a.25.25,0,0,1,.25-.25h1.77a.25.25,0,0,1,.25.25v5.82a.25.25,0,0,1-.25.25h-1.77a.25.25,0,0,1-.25-.25m1.77-5.56h-1.26v5.31h1.26Z"/><path class="cls-7" d="M533.23,276.68h13.15a.25.25,0,1,0,0-.51H533.23a.25.25,0,0,0,0,.51"/><path class="cls-7" d="M533.23,279.2h5.57a.25.25,0,0,0,0-.5h-5.57a.25.25,0,0,0,0,.5"/><path class="cls-7" d="M533.23,281.73h5.57a.25.25,0,0,0,0-.5h-5.57a.25.25,0,0,0,0,.5"/><path class="cls-7" d="M533.23,284.26h5.57a.25.25,0,0,0,0-.51h-5.57a.25.25,0,0,0,0,.51"/><path class="cls-7" d="M533.23,274.15h13.15a.25.25,0,1,0,0-.51H533.23a.25.25,0,0,0,0,.51"/><rect class="cls-1" x="540.22" y="278.27" width="6.96" height="6" rx="0.14" ry="0.14"/><rect class="cls-16" x="540.22" y="278.27" width="6.96" height="6" rx="0.14" ry="0.14"/><path class="cls-17" d="M552,285.45a4,4,0,1,1-4-4,4,4,0,0,1,4,4"/><path class="cls-18" d="M547.43,287.4a.27.27,0,0,1-.19-.08l-1.52-1.52a.27.27,0,0,1,.38-.38l1.33,1.33,2.66-2.67a.27.27,0,0,1,.38.38l-2.86,2.86a.27.27,0,0,1-.19.08"/><rect class="cls-6" x="353.65" y="252.5" width="51.39" height="42.45"/><rect class="cls-1" x="368.66" y="258.98" width="20.56" height="27.83"/><path class="cls-7" d="M368.06,285.5V260.27a1.76,1.76,0,0,1,1.76-1.76H388a1.76,1.76,0,0,1,1.76,1.76V285.5a1.76,1.76,0,0,1-1.76,1.76H369.83a1.76,1.76,0,0,1-1.76-1.76m1.76-26.41a1.18,1.18,0,0,0-1.18,1.18V285.5a1.18,1.18,0,0,0,1.18,1.18H388a1.18,1.18,0,0,0,1.17-1.18V260.27a1.18,1.18,0,0,0-1.17-1.18Z"/><rect class="cls-1" x="373.05" y="262.91" width="2.05" height="5.28"/><rect class="cls-1" x="380.68" y="261.44" width="2.06" height="6.75"/><path class="cls-7" d="M371.29,274.35h15.26a.29.29,0,1,0,0-.59H371.29a.29.29,0,0,0,0,.59"/><path class="cls-7" d="M371.29,282.86h6.46a.29.29,0,0,0,0-.59h-6.46a.29.29,0,0,0,0,.59"/><path class="cls-17" d="M392.63,284.91a4,4,0,1,1-4-4,4,4,0,0,1,4,4"/><path class="cls-18" d="M388,286.86a.27.27,0,0,1-.19-.08l-1.52-1.52a.27.27,0,0,1,.38-.38l1.33,1.33,2.66-2.67a.27.27,0,0,1,.38.38l-2.86,2.86a.27.27,0,0,1-.19.08"/><path class="cls-7" d="M371.29,270.9h15.26a.29.29,0,1,0,0-.59H371.29a.29.29,0,0,0,0,.59"/><path class="cls-7" d="M371.29,264h15.26a.29.29,0,1,0,0-.59H371.29a.29.29,0,0,0,0,.59"/><path class="cls-7" d="M371.29,267.44h15.26a.29.29,0,1,0,0-.59H371.29a.29.29,0,0,0,0,.59"/><path class="cls-7" d="M375.46,263.6v10.26c0,.11.13.2.29.2s.29-.09.29-.2V263.6c0-.11-.13-.2-.29-.2s-.29.09-.29.2"/><path class="cls-7" d="M371,263.74V274c0,.11.13.2.29.2s.29-.09.29-.2V263.74c0-.11-.13-.2-.29-.2s-.29.09-.29.2"/><path class="cls-7" d="M386.26,263.6v10.26c0,.11.13.2.29.2s.29-.09.29-.2V263.6c0-.11-.13-.2-.29-.2s-.29.09-.29.2"/><path class="cls-7" d="M371.29,277.88h15.26a.29.29,0,1,0,0-.59H371.29a.29.29,0,0,0,0,.59"/><path class="cls-7" d="M371.18,280.37h9.62c.1,0,.19-.13.19-.29s-.08-.29-.19-.29h-9.62c-.1,0-.19.13-.19.29s.08.29.19.29"/></g></g></svg>